<svg width="1037" height="535" viewBox="0 0 1037 535" fill="none" xmlns="http://www.w3.org/2000/svg">
<mask id="mask0_1328_1913" style="mask-type:alpha" maskUnits="userSpaceOnUse" x="0" y="0" width="1037" height="535">
<rect width="1037" height="535" fill="#D9D9D9" fill-opacity="0.5"/>
</mask>
<g mask="url(#mask0_1328_1913)">
<path opacity="0.0144928" d="M1219.94 1054.56C1228.72 1061.35 1240.86 1058.55 1247.77 1048.13L1396.26 824.125C1399.38 819.414 1401.07 813.641 1401.02 807.836L1397.21 345.867C1397.17 341.69 1396.24 337.662 1394.5 334.169L1232.81 9.99039C1228.67 1.69993 1220.58 -2.46222 1212.31 -0.551755L1031.49 41.2208C1023.22 43.1312 1016.4 50.7372 1014.23 60.4857L929.132 441.674C928.215 445.782 928.181 450.033 929.034 454.022L1023.28 895.101C1024.46 900.644 1027.29 905.373 1031.26 908.446L1219.94 1054.56Z" stroke="url(#paint0_linear_1328_1913)" stroke-width="4"/>
<path opacity="0.0289855" d="M1185.03 1052.34C1193.72 1059.92 1206.36 1057.98 1213.78 1047.93L1368.86 837.944C1372.12 833.522 1374 827.987 1374.16 822.306L1386.97 364.467C1387.08 360.411 1386.31 356.436 1384.74 352.908L1235.84 19.9146C1231.99 11.3205 1223.91 6.5485 1215.4 7.85268L1035.19 35.48C1026.68 36.7842 1019.45 43.9036 1016.92 53.4752L918.739 424.346C917.699 428.276 917.515 432.396 918.204 436.33L995.996 880.279C996.962 885.787 999.586 890.632 1003.41 893.968L1185.03 1052.34Z" stroke="url(#paint1_linear_1328_1913)" stroke-width="4"/>
<path opacity="0.0434783" d="M1150.46 1048.57C1159.02 1056.92 1172.09 1055.92 1180.01 1046.31L1341.09 850.694C1344.49 846.564 1346.55 841.267 1346.91 835.71L1376.03 383.32C1376.29 379.378 1375.68 375.453 1374.25 371.893L1238.34 31.1572C1234.8 22.2827 1226.76 16.8932 1218.05 17.5589L1038.9 31.2532C1030.19 31.9189 1022.58 38.505 1019.69 47.8706L908.939 407.462C907.782 411.219 907.456 415.216 907.991 419.097L969.377 864.568C970.131 870.04 972.555 874.995 976.234 878.584L1150.46 1048.57Z" stroke="url(#paint2_linear_1328_1913)" stroke-width="4"/>
<path opacity="0.057971" d="M1116.29 1043.31C1124.66 1052.41 1138.1 1052.41 1146.48 1043.31L1313.01 862.357C1316.53 858.523 1318.76 853.463 1319.31 848.028L1364.39 402.37C1364.78 398.536 1364.32 394.656 1363.05 391.064L1240.27 43.6647C1237.04 34.5341 1229.08 28.5242 1220.21 28.5242L1042.55 28.5242C1033.68 28.5242 1025.72 34.5341 1022.5 43.6648L899.715 391.064C898.445 394.656 897.984 398.536 898.372 402.37L943.453 848.028C944.002 853.463 946.229 858.523 949.757 862.357L1116.29 1043.31Z" stroke="url(#paint3_linear_1328_1913)" stroke-width="4"/>
<path opacity="0.0724638" d="M1082.58 1036.62C1090.72 1046.45 1104.43 1047.49 1113.23 1038.96L1284.64 872.918C1288.29 869.384 1290.68 864.559 1291.42 859.243L1352.04 421.559C1352.56 417.826 1352.24 413.985 1351.12 410.358L1241.58 57.3771C1238.67 48.0155 1230.83 41.3884 1221.85 40.7018L1046.09 27.2665C1037.11 26.58 1028.84 31.9756 1025.28 40.843L891.045 375.19C889.666 378.626 889.074 382.398 889.321 386.188L918.247 830.718C918.599 836.117 920.63 841.28 924.006 845.351L1082.58 1036.62Z" stroke="url(#paint4_linear_1328_1913)" stroke-width="4"/>
<path opacity="0.0869565" d="M1049.38 1028.57C1057.25 1039.08 1071.11 1041.2 1080.31 1033.31L1256.04 882.367C1259.8 879.135 1262.35 874.542 1263.27 869.342L1338.98 440.832C1339.63 437.192 1339.45 433.382 1338.46 429.719L1242.24 72.2346C1239.66 62.6681 1231.99 55.4337 1222.94 54.0474L1049.45 27.4505C1040.41 26.0642 1031.87 30.8133 1027.99 39.3899L882.907 359.882C881.42 363.166 880.702 366.838 880.812 370.593L893.787 812.699C893.945 818.065 895.784 823.331 899.004 827.633L1049.38 1028.57Z" stroke="url(#paint5_linear_1328_1913)" stroke-width="4"/>
<path opacity="0.101449" d="M1016.75 1019.23C1024.28 1030.37 1038.21 1033.59 1047.73 1026.38L1227.24 890.696C1231.11 887.77 1233.82 883.407 1234.92 878.317L1325.21 460.133C1325.98 456.578 1325.94 452.793 1325.09 449.087L1242.2 88.1747C1239.96 78.4304 1232.5 70.6061 1223.45 68.5153L1052.57 29.0403C1043.52 26.9494 1034.76 31.0271 1030.57 39.2859L875.278 345.175C873.683 348.316 872.84 351.896 872.817 355.623L870.094 794.038C870.061 799.374 871.71 804.743 874.771 809.27L1016.75 1019.23Z" stroke="url(#paint6_linear_1328_1913)" stroke-width="4"/>
<path opacity="0.115942" d="M984.717 1008.66C991.875 1020.38 1005.74 1024.68 1015.55 1018.22L1198.29 897.899C1202.27 895.282 1205.12 891.146 1206.4 886.164L1310.73 479.404C1311.63 475.927 1311.72 472.157 1311 468.404L1241.43 105.129C1239.54 95.2348 1232.33 86.8461 1223.33 84.0553L1055.4 31.9913C1046.4 29.2005 1037.48 32.5892 1032.99 40.5042L868.133 331.104C866.43 334.107 865.462 337.603 865.307 341.31L847.189 774.798C846.967 780.107 848.426 785.582 851.327 790.33L984.717 1008.66Z" stroke="url(#paint7_linear_1328_1913)" stroke-width="4"/>
<path opacity="0.130435" d="M953.33 996.955C960.07 1009.18 973.758 1014.53 983.786 1008.86L1169.23 903.975C1173.3 901.671 1176.31 897.761 1177.77 892.882L1295.55 498.591C1296.57 495.184 1296.79 491.422 1296.21 487.614L1239.91 123.031C1238.37 113.015 1231.46 104.095 1222.57 100.619L1057.89 36.2582C1048.99 32.7816 1039.95 35.4721 1035.18 43.0182L861.45 317.702C859.635 320.571 858.54 323.992 858.253 327.686L825.091 755.047C824.68 760.335 825.947 765.917 828.685 770.883L953.33 996.955Z" stroke="url(#paint8_linear_1328_1913)" stroke-width="4"/>
<path opacity="0.144928" d="M922.615 984.172C928.9 996.831 942.295 1003.18 952.481 998.326L1140.1 908.925C1144.27 906.939 1147.43 903.254 1149.07 898.475L1279.67 517.638C1280.82 514.294 1281.18 510.531 1280.72 506.661L1237.6 141.81C1236.41 131.701 1229.85 122.291 1221.12 118.152L1059.99 41.79C1051.25 37.6511 1042.16 39.6425 1037.12 46.7962L855.199 304.999C853.27 307.738 852.044 311.091 851.624 314.78L803.812 734.854C803.213 740.125 804.287 745.818 806.858 750.998L922.615 984.172Z" stroke="url(#paint9_linear_1328_1913)" stroke-width="4"/>
<path opacity="0.15942" d="M892.601 970.385C898.399 983.4 911.394 990.676 921.673 986.662L1110.94 912.754C1115.2 911.091 1118.51 907.632 1120.33 902.952L1263.1 536.489C1264.38 533.203 1264.88 529.431 1264.56 525.491L1234.48 161.393C1233.64 151.222 1227.46 141.368 1218.95 136.599L1061.66 48.5346C1053.14 43.7658 1044.03 45.0651 1038.74 51.8038L849.357 293.025C847.307 295.636 845.947 298.925 845.391 302.617L783.369 714.288C782.577 719.546 783.455 725.353 785.856 730.745L892.601 970.385Z" stroke="url(#paint10_linear_1328_1913)" stroke-width="4"/>
<path opacity="0.173913" d="M863.31 955.662C868.595 968.951 881.091 977.066 891.398 973.902L1081.79 915.469C1086.13 914.136 1089.6 910.906 1091.62 906.323L1245.85 555.092C1247.27 551.859 1247.91 548.07 1247.72 544.052L1230.51 181.708C1230.03 171.503 1224.28 161.26 1216.03 155.902L1062.87 56.4387C1054.61 51.0801 1045.55 51.7016 1040.02 58.0044L843.893 281.808C841.718 284.29 840.217 287.521 839.52 291.223L763.77 693.422C762.781 698.67 763.458 704.592 765.685 710.192L863.31 955.662Z" stroke="url(#paint11_linear_1328_1913)" stroke-width="4"/>
<path opacity="0.188406" d="M834.759 940.068C839.513 953.546 851.427 962.4 861.697 960.088L1052.7 917.081C1057.12 916.085 1060.74 913.088 1062.95 908.604L1227.93 573.391C1229.5 570.209 1230.29 566.397 1230.24 562.294L1225.69 202.679C1225.56 192.472 1220.27 181.898 1212.33 175.996L1063.57 65.4478C1055.63 59.5458 1046.65 59.5102 1040.92 65.3578L838.779 271.372C836.473 273.722 834.824 276.898 833.98 280.616L745.022 672.327C743.832 677.567 744.3 683.606 746.348 689.411L834.759 940.068Z" stroke="url(#paint12_linear_1328_1913)" stroke-width="4"/>
<path opacity="0.202899" d="M806.966 923.664C811.178 937.249 822.44 946.732 832.611 945.26L1023.7 917.601C1028.19 916.95 1031.97 914.193 1034.38 909.812L1209.36 591.334C1211.08 588.202 1212.03 584.361 1212.12 580.165L1220 224.23C1220.22 214.05 1215.4 203.205 1207.81 196.811L1063.76 75.506C1056.17 69.1121 1047.32 68.4453 1041.39 73.8203L833.988 261.739C831.543 263.954 829.738 267.075 828.738 270.815L727.129 651.076C725.732 656.307 725.986 662.463 727.847 668.466L806.966 923.664Z" stroke="url(#paint13_linear_1328_1913)" stroke-width="4"/>
<path opacity="0.217391" d="M779.945 906.509C783.609 920.118 794.167 930.118 804.181 929.466L994.828 917.046C999.388 916.749 1003.33 914.239 1005.94 909.967L1190.14 608.867C1192.03 605.786 1193.14 601.912 1193.39 597.617L1213.41 246.283C1213.99 236.159 1209.67 225.108 1202.45 218.276L1063.39 86.5586C1056.18 79.7273 1047.5 78.4596 1041.39 83.3462L829.487 252.929C826.897 255.002 824.926 258.068 823.762 261.833L710.095 629.739C708.482 634.96 708.512 641.231 710.18 647.427L779.945 906.509Z" stroke="url(#paint14_linear_1328_1913)" stroke-width="4"/>
<path opacity="0.231884" d="M753.706 888.667C756.825 902.222 766.644 912.626 776.446 912.765L966.133 915.442C970.747 915.507 974.846 913.254 977.673 909.098L1170.3 625.946C1172.36 622.919 1173.66 619.009 1174.06 614.61L1205.93 268.765C1206.85 258.727 1203.04 247.532 1196.23 240.319L1062.45 98.5569C1055.65 91.3445 1047.17 89.5091 1040.91 93.8935L825.247 244.966C822.504 246.887 820.356 249.895 819.018 253.688L693.915 608.397C692.078 613.603 691.876 619.985 693.344 626.365L753.706 888.667Z" stroke="url(#paint15_linear_1328_1913)" stroke-width="4"/>
<path opacity="0.246377" d="M728.263 870.19C730.845 883.618 739.905 894.318 749.447 895.21L937.648 912.807C942.306 913.242 946.563 911.258 949.61 907.23L1149.86 642.517C1152.11 639.55 1153.59 635.604 1154.17 631.097L1197.53 291.594C1198.8 281.673 1195.5 270.395 1189.12 262.858L1060.92 111.444C1054.54 103.907 1046.29 101.539 1039.9 105.41L821.237 237.863C818.334 239.621 815.998 242.566 814.475 246.385L678.587 587.118C676.519 592.303 676.073 598.788 677.333 605.343L728.263 870.19Z" stroke="url(#paint16_linear_1328_1913)" stroke-width="4"/>
<path opacity="0.26087" d="M703.625 851.138C705.683 864.371 713.978 875.264 723.216 876.867L909.409 909.168C914.099 909.982 918.511 908.279 921.785 904.392L1128.84 658.534C1131.28 655.635 1132.97 651.654 1133.73 647.038L1188.23 314.695C1189.83 304.918 1187.04 293.619 1181.1 285.812L1058.77 125.169C1052.83 117.362 1044.83 114.497 1038.34 117.844L817.423 231.634C814.355 233.215 811.818 236.088 810.096 239.933L664.101 565.976C661.793 571.131 661.093 577.709 662.138 584.427L703.625 851.138Z" stroke="url(#paint17_linear_1328_1913)" stroke-width="4"/>
<path opacity="0.275362" d="M679.801 831.566C681.354 844.545 688.891 855.538 697.789 857.803L881.453 904.555C886.16 905.754 890.726 904.346 894.231 900.616L1107.25 673.951C1109.9 671.131 1111.82 667.12 1112.77 662.394L1178 337.989C1179.93 328.385 1177.65 317.12 1172.15 309.098L1056 139.676C1050.5 131.655 1042.77 128.328 1036.19 131.145L813.774 226.293C810.534 227.679 807.784 230.47 805.851 234.336L650.448 545.043C647.89 550.155 646.925 556.815 647.747 563.68L679.801 831.566Z" stroke="url(#paint18_linear_1328_1913)" stroke-width="4"/>
<path opacity="0.289855" d="M656.799 811.533C657.869 824.204 664.665 835.214 673.193 838.089L853.812 898.999C858.521 900.587 863.236 899.491 866.978 895.937L1085.14 688.723C1088.01 685.996 1090.16 681.962 1091.31 677.129L1166.86 361.397C1169.11 351.994 1167.33 340.817 1162.28 332.63L1052.57 154.914C1047.52 146.727 1040.08 142.974 1033.43 145.256L810.256 221.846C806.839 223.018 803.864 225.714 801.705 229.594L637.612 524.387C634.798 529.443 633.557 536.168 634.148 543.165L656.799 811.533Z" stroke="url(#paint19_linear_1328_1913)" stroke-width="4"/>
<path opacity="0.304348" d="M634.629 791.098C635.24 803.417 641.322 814.371 649.456 817.804L826.52 892.536C831.216 894.518 836.074 893.748 840.055 890.39L1062.51 702.809C1065.61 700.192 1068.01 696.145 1069.39 691.209L1154.82 384.846C1157.37 375.67 1156.08 364.629 1151.47 356.324L1048.48 170.829C1043.87 162.524 1036.74 158.379 1030.05 160.122L806.836 218.301C803.24 219.238 800.027 221.822 797.626 225.705L625.579 504.08C622.499 509.062 620.973 515.833 621.325 522.944L634.629 791.098Z" stroke="url(#paint20_linear_1328_1913)" stroke-width="4"/>
<path opacity="0.318841" d="M613.294 770.322C613.474 782.251 618.872 793.088 626.595 797.024L799.607 885.203C804.27 887.58 809.264 887.152 813.487 884.014L1039.41 716.168C1042.75 713.681 1045.42 709.635 1047.03 704.605L1141.87 408.259C1144.72 399.335 1143.89 388.475 1139.72 380.096L1043.72 187.365C1039.54 178.986 1032.72 174.482 1026.02 175.686L803.478 215.662C799.7 216.341 796.237 218.792 793.581 222.666L614.325 484.187C610.974 489.076 609.152 495.871 609.261 503.075L613.294 770.322Z" stroke="url(#paint21_linear_1328_1913)" stroke-width="4"/>
<path opacity="0.333333" d="M592.801 749.265C592.579 760.776 597.329 771.444 604.629 775.829L773.101 877.038C777.715 879.809 782.835 879.741 787.3 876.848L1015.85 728.763C1019.45 726.43 1022.41 722.401 1024.26 717.287L1128.02 431.561C1131.16 422.914 1130.78 412.275 1127.04 403.859L1038.26 204.468C1034.51 196.053 1028 191.222 1021.31 191.889L800.149 213.928C796.191 214.323 792.467 216.619 789.54 220.468L603.83 464.774C600.202 469.547 598.076 476.342 597.935 483.617L592.801 749.265Z" stroke="url(#paint22_linear_1328_1913)" stroke-width="4"/>
<path opacity="0.347826" d="M573.153 727.993C572.557 739.062 576.698 749.522 583.568 754.304L747.03 868.084C751.576 871.248 756.812 871.554 761.516 868.933L991.883 740.559C995.747 738.406 999.001 734.416 1001.12 729.233L1113.3 454.681C1116.71 446.334 1116.76 435.949 1113.43 427.533L1032.1 222.082C1028.77 213.667 1022.58 208.537 1015.92 208.671L796.814 213.098C792.678 213.182 788.682 215.297 785.472 219.101L594.066 445.902C590.157 450.534 587.722 457.302 587.327 464.625L573.153 727.993Z" stroke="url(#paint23_linear_1328_1913)" stroke-width="4"/>
<path opacity="0.362319" d="M554.35 706.569C553.411 717.181 556.981 727.402 563.42 732.531L721.419 858.384C725.877 861.935 731.216 862.633 736.156 860.31L967.532 751.524C971.666 749.58 975.235 745.654 977.627 740.419L1097.72 477.548C1101.38 469.521 1101.84 459.421 1098.91 451.036L1025.24 240.151C1022.31 231.766 1016.44 226.364 1009.83 225.973L793.44 213.167C789.131 212.912 784.855 214.816 781.347 218.552L585.007 427.633C580.815 432.097 578.064 438.807 577.413 446.154L554.35 706.569Z" stroke="url(#paint24_linear_1328_1913)" stroke-width="4"/>
<path opacity="0.376812" d="M536.391 685.058C535.136 695.205 538.176 705.164 544.186 710.593L696.289 847.985C700.64 851.916 706.067 853.019 711.235 851.024L942.833 761.629C947.242 759.927 951.141 756.093 953.817 750.829L1081.28 500.094C1085.19 492.408 1086.03 482.616 1083.49 474.289L1017.65 258.617C1015.11 250.289 1009.56 244.642 1003.03 243.735L789.988 214.125C785.514 213.504 780.952 215.165 777.135 218.804L576.619 410.022C572.144 414.289 569.075 420.91 568.166 428.256L536.391 685.058Z" stroke="url(#paint25_linear_1328_1913)" stroke-width="4"/>
<path opacity="0.391304" d="M519.273 663.526C517.73 673.204 520.278 682.887 525.865 688.572L671.66 836.932C675.887 841.233 681.384 842.755 686.771 841.117L917.826 770.847C922.511 769.423 926.75 765.715 929.722 760.445L1064.03 522.252C1068.16 514.924 1069.35 505.462 1067.18 497.214L1009.34 277.422C1007.17 269.175 1001.94 263.306 995.509 261.893L786.425 215.962C781.799 214.946 776.948 216.328 772.813 219.841L568.868 393.124C564.114 397.164 560.727 403.661 559.559 410.982L519.273 663.526Z" stroke="url(#paint26_linear_1328_1913)" stroke-width="4"/>
<path opacity="0.405797" d="M502.992 642.039C501.185 651.25 503.279 660.649 508.452 666.552L647.553 825.273C651.636 829.932 657.186 831.886 662.778 830.633L892.551 779.157C897.509 778.047 902.098 774.503 905.372 769.256L1045.98 543.959C1050.32 537.004 1051.84 527.887 1050.02 519.739L1000.3 296.51C998.482 288.362 993.575 282.293 987.261 280.387L782.718 218.66C777.954 217.223 772.814 218.29 768.355 221.642L561.721 376.987C556.692 380.768 552.989 387.107 551.563 394.377L502.992 642.039Z" stroke="url(#paint27_linear_1328_1913)" stroke-width="4"/>
<path opacity="0.42029" d="M487.536 620.662C485.491 629.412 487.165 638.525 491.936 644.611L623.98 813.056C627.902 818.059 633.484 820.454 639.265 819.615L867.048 786.541C872.273 785.782 877.214 782.444 880.796 777.252L1027.14 565.154C1031.68 558.586 1033.51 549.825 1032.03 541.791L990.522 315.822C989.046 307.788 984.455 301.538 978.279 299.155L778.83 222.202C773.947 220.318 768.524 221.03 763.739 224.184L555.135 361.659C549.841 365.148 545.828 371.294 544.146 378.487L487.536 620.662Z" stroke="url(#paint28_linear_1328_1913)" stroke-width="4"/>
<path opacity="0.434783" d="M472.898 599.46C470.635 607.76 471.921 616.589 476.303 622.829L600.957 800.329C604.701 805.661 610.293 808.506 616.243 808.106L841.36 792.984C846.84 792.616 852.133 789.527 856.025 784.425L1007.57 585.778C1012.27 579.608 1014.39 571.211 1013.24 563.303L980.014 335.301C978.862 327.393 974.583 320.979 968.563 318.135L774.728 226.564C769.749 224.212 764.053 224.53 758.944 227.445L549.073 347.181C543.526 350.346 539.21 356.263 537.276 363.354L472.898 599.46Z" stroke="url(#paint29_linear_1328_1913)" stroke-width="4"/>
<path opacity="0.449275" d="M459.062 578.499C456.6 586.361 457.529 594.914 461.536 601.282L578.494 787.144C582.045 792.786 587.623 796.086 593.719 796.15L815.532 798.479C821.249 798.539 826.887 795.745 831.086 790.771L987.27 605.776C992.135 600.013 994.521 591.983 993.677 584.21L968.775 354.888C967.931 347.115 963.961 340.553 958.113 337.265L770.38 231.72C765.331 228.882 759.378 228.766 753.953 231.4L543.49 333.591C537.706 336.399 533.1 342.052 530.918 349.019L459.062 578.499Z" stroke="url(#paint30_linear_1328_1913)" stroke-width="4"/>
<path opacity="0.463768" d="M446.015 557.841C443.371 565.281 443.968 573.568 447.615 580.043L556.602 773.547C559.945 779.482 565.484 783.239 571.699 783.787L789.61 803.02C795.541 803.544 801.509 801.093 806.01 796.285L966.287 625.096C971.295 619.747 973.926 612.085 973.376 604.451L956.808 374.528C956.258 366.894 952.592 360.197 946.931 356.484L765.754 237.64C760.666 234.302 754.479 233.715 748.752 236.026L538.345 320.92C532.343 323.342 527.461 328.696 525.037 335.515L446.015 557.841Z" stroke="url(#paint31_linear_1328_1913)" stroke-width="4"/>
<path opacity="0.478261" d="M433.736 537.548C430.923 544.582 431.212 552.617 434.514 559.183L535.285 759.588C538.407 765.795 543.879 770.008 550.185 771.059L763.637 806.611C769.753 807.629 776.03 805.568 780.822 800.968L944.649 643.688C949.785 638.757 952.643 631.46 952.374 623.969L944.117 394.163C943.848 386.672 940.482 379.851 935.021 375.73L760.82 244.289C755.725 240.445 749.334 239.352 743.325 241.297L533.59 309.198C527.394 311.203 522.253 316.228 519.594 322.877L433.736 537.548Z" stroke="url(#paint32_linear_1328_1913)" stroke-width="4"/>
<path opacity="0.492754" d="M422.206 517.68C419.235 524.327 419.235 532.125 422.206 538.771L514.551 745.316C517.439 751.775 522.818 756.44 529.18 758.004L737.662 809.259C743.925 810.798 750.483 809.171 755.549 804.819L922.39 661.506C927.64 656.997 930.71 650.061 930.71 642.712L930.71 413.739C930.71 406.391 927.64 399.454 922.39 394.945L755.549 251.632C750.483 247.281 743.925 245.653 737.662 247.193L529.18 298.447C522.818 300.011 517.439 304.677 514.551 311.135L422.206 517.68Z" stroke="url(#paint33_linear_1328_1913)" stroke-width="4"/>
<path opacity="0.507246" d="M411.404 498.295C408.281 504.572 408.009 512.15 410.664 518.869L494.404 730.778C497.047 737.467 502.304 742.576 508.688 744.662L711.729 810.977C718.098 813.057 724.9 811.903 730.22 807.839L899.549 678.507C904.899 674.421 908.168 667.838 908.427 660.63L916.599 433.201C916.858 425.992 914.079 418.947 909.051 414.068L749.918 259.628C744.918 254.776 738.236 252.591 731.753 253.688L525.072 288.684C518.573 289.785 512.979 294.064 509.871 300.314L411.404 498.295Z" stroke="url(#paint34_linear_1328_1913)" stroke-width="4"/>
<path opacity="0.521739" d="M401.301 479.449C398.034 485.376 397.502 492.752 399.853 499.539L474.842 716.023C477.231 722.921 482.337 728.461 488.707 731.069L685.881 811.785C692.308 814.416 699.309 813.769 704.858 810.031L876.159 694.651C881.598 690.988 885.055 684.751 885.564 677.68L901.791 452.495C902.301 445.424 899.809 438.275 895.011 433.042L743.9 268.236C739.005 262.897 732.25 260.141 725.587 260.766L521.217 279.924C514.614 280.543 508.83 284.414 505.51 290.436L401.301 479.449Z" stroke="url(#paint35_linear_1328_1913)" stroke-width="4"/>
<path opacity="0.536232" d="M391.872 461.197C388.462 466.789 387.681 473.981 389.739 480.836L455.867 701.098C457.994 708.181 462.921 714.137 469.239 717.262L660.159 811.706C666.594 814.889 673.744 814.775 679.492 811.398L852.261 709.901C857.779 706.66 861.413 700.761 862.166 693.822L886.3 471.568C887.054 464.63 884.848 457.381 880.287 451.811L737.478 277.412C732.726 271.609 725.95 268.278 719.156 268.405L517.57 272.174C510.899 272.299 504.952 275.743 501.429 281.521L391.872 461.197Z" stroke="url(#paint36_linear_1328_1913)" stroke-width="4"/>
<path opacity="0.550725" d="M383.089 443.588C379.537 448.862 378.513 455.889 380.287 462.813L437.478 686.048C439.335 693.295 444.055 699.646 450.283 703.278L634.601 810.768C640.992 814.495 648.234 814.93 654.149 811.944L827.895 724.225C833.481 721.405 837.286 715.833 838.279 709.021L870.143 490.371C871.135 483.559 869.213 476.212 864.896 470.322L730.633 287.111C726.062 280.873 719.325 276.975 712.447 276.588L514.09 265.438C507.387 265.061 501.304 268.064 497.587 273.583L383.089 443.588Z" stroke="url(#paint37_linear_1328_1913)" stroke-width="4"/>
<path opacity="0.565217" d="M374.919 426.673C371.224 431.641 369.96 438.521 371.457 445.518L419.672 670.919C421.252 678.307 425.739 685.03 431.84 689.152L609.241 809.003C615.533 813.253 622.809 814.244 628.856 811.673L803.1 737.591C808.746 735.19 812.717 729.939 813.946 723.248L853.333 508.851C854.562 502.16 852.923 494.716 848.856 488.521L723.352 297.29C718.997 290.654 712.356 286.205 705.45 285.298L510.73 259.716C504.034 258.836 497.844 261.386 493.942 266.632L374.919 426.673Z" stroke="url(#paint38_linear_1328_1913)" stroke-width="4"/>
<path opacity="0.57971" d="M367.33 410.495C363.489 415.17 361.985 421.919 363.21 428.994L402.443 655.757C403.742 663.264 407.97 670.33 413.908 674.919L584.109 806.441C590.25 811.187 597.501 812.728 603.641 810.592L777.919 749.973C783.617 747.991 787.751 743.052 789.216 736.477L835.889 526.962C837.353 520.387 835.999 512.847 832.189 506.359L715.623 307.903C711.517 300.912 705.03 295.942 698.149 294.517L507.452 255.003C500.798 253.625 494.53 255.717 490.454 260.677L367.33 410.495Z" stroke="url(#paint39_linear_1328_1913)" stroke-width="4"/>
<path opacity="0.594203" d="M360.289 395.1C356.296 399.49 354.551 406.122 355.504 413.281L385.788 640.605C386.801 648.209 390.747 655.589 396.489 660.616L559.231 803.118C565.172 808.32 572.339 810.396 578.534 808.709L752.395 761.348C758.137 759.784 762.432 755.151 764.133 748.687L817.831 544.654C819.532 538.191 818.465 530.555 814.916 523.789L707.439 318.91C703.609 311.61 697.331 306.158 690.529 304.225L504.214 251.294C497.641 249.426 491.322 251.059 487.081 255.721L360.289 395.1Z" stroke="url(#paint40_linear_1328_1913)" stroke-width="4"/>
<path opacity="0.608696" d="M353.759 380.525C349.608 384.636 347.616 391.164 348.299 398.414L369.697 625.508C370.42 633.185 374.065 640.845 379.58 646.28L534.627 799.065C540.325 804.679 547.353 807.265 553.564 806.032L726.57 771.696C732.349 770.549 736.805 766.217 738.745 759.862L799.179 561.883C801.119 555.528 800.344 547.798 797.061 540.767L698.792 330.267C695.264 322.709 689.244 316.821 682.571 314.403L500.98 248.576C494.52 246.235 488.179 247.41 483.783 251.763L353.759 380.525Z" stroke="url(#paint41_linear_1328_1913)" stroke-width="4"/>
<path opacity="0.623188" d="M347.704 366.808C343.388 370.642 341.141 377.076 341.551 384.422L354.163 610.509C354.594 618.238 357.919 626.141 363.18 631.948L510.319 794.315C515.734 800.29 522.573 803.353 528.764 802.575L700.489 781.003C706.297 780.273 710.916 776.24 713.099 769.991L779.956 578.604C782.139 572.356 781.662 564.535 778.652 557.253L689.681 341.937C686.473 334.173 680.754 327.904 674.257 325.026L497.712 246.84C491.398 244.044 485.06 244.766 480.52 248.8L347.704 366.808Z" stroke="url(#paint42_linear_1328_1913)" stroke-width="4"/>
<path opacity="0.637681" d="M342.084 353.982C337.597 357.54 335.085 363.887 335.216 371.333L339.176 595.65C339.313 603.407 342.303 611.518 347.288 617.657L486.321 788.897C491.422 795.18 498.028 798.68 504.165 798.352L674.197 789.255C680.027 788.943 684.809 785.208 687.24 779.066L760.188 594.775C762.619 588.634 762.446 580.726 759.716 573.206L680.102 353.881C677.228 345.965 671.847 339.371 665.566 336.069L494.376 246.069C488.238 242.842 481.927 243.121 477.253 246.826L342.084 353.982Z" stroke="url(#paint43_linear_1328_1913)" stroke-width="4"/>
<path opacity="0.652174" d="M336.861 342.078C332.195 345.354 329.406 351.618 329.252 359.168L324.725 580.972C324.567 588.734 327.209 597.014 331.899 603.447L462.648 782.842C467.41 789.376 473.747 793.27 479.797 793.38L647.738 796.445C653.581 796.551 658.528 793.115 661.213 787.084L739.899 610.355C742.585 604.324 742.725 596.336 740.281 588.593L670.054 366.064C667.524 358.047 662.508 351.188 656.478 347.5L490.938 246.247C485.001 242.616 478.74 242.462 473.943 245.83L336.861 342.078Z" stroke="url(#paint44_linear_1328_1913)" stroke-width="4"/>
<path opacity="0.666667" d="M331.993 331.121C327.141 334.109 324.062 340.29 323.614 347.943L310.797 566.516C310.343 574.259 312.63 582.67 317.008 589.357L439.313 776.175C443.72 782.906 449.758 787.148 455.692 787.682L621.157 802.568C627.006 803.095 632.119 799.961 635.065 794.046L719.118 625.307C722.065 619.391 722.528 611.33 720.377 603.38L659.539 378.451C657.358 370.385 652.725 363.319 646.975 359.286L487.366 247.357C481.652 243.35 475.462 242.777 470.553 245.8L331.993 331.121Z" stroke="url(#paint45_linear_1328_1913)" stroke-width="4"/>
<path opacity="0.681159" d="M327.439 321.135C322.394 323.824 319.011 329.918 318.257 337.674L297.377 552.319C296.628 560.022 298.553 568.524 302.609 575.425L416.329 768.926C420.37 775.8 426.088 780.344 431.881 781.282L594.5 807.626C600.343 808.573 605.625 805.748 608.84 799.957L697.873 639.593C701.088 633.802 701.884 625.68 700.035 617.54L648.557 391.011C646.724 382.941 642.487 375.727 637.037 371.392L483.627 249.379C478.156 245.027 472.054 244.049 467.044 246.719L327.439 321.135Z" stroke="url(#paint46_linear_1328_1913)" stroke-width="4"/>
<path opacity="0.695652" d="M323.156 312.137C317.913 314.514 314.209 320.513 313.137 328.367L284.45 538.421C283.407 546.058 284.967 554.615 288.693 561.691L393.708 761.119C397.378 768.087 402.762 772.887 408.393 774.208L567.81 811.622C573.638 812.99 579.09 810.482 582.581 804.826L676.194 653.182C679.686 647.526 680.826 639.357 679.284 631.045L637.11 403.71C635.62 395.68 631.785 388.371 626.65 383.777L479.693 252.291C474.479 247.626 468.481 246.257 463.383 248.568L323.156 312.137Z" stroke="url(#paint47_linear_1328_1913)" stroke-width="4"/>
<path opacity="0.710145" d="M319.101 304.144C313.656 306.192 309.616 312.085 308.212 320.027L271.999 524.856C270.665 532.405 271.86 540.979 275.252 548.192L371.463 752.781C374.763 759.798 379.805 764.81 385.256 766.491L541.132 814.564C546.935 816.353 552.556 814.172 556.331 808.665L654.115 666.043C657.89 660.536 659.385 652.337 658.158 643.873L625.2 416.518C624.047 408.568 620.611 401.214 615.8 396.4L475.533 256.07C470.587 251.122 464.709 249.379 459.533 251.326L319.101 304.144Z" stroke="url(#paint48_linear_1328_1913)" stroke-width="4"/>
<path opacity="0.724638" d="M315.23 297.166C309.58 298.866 305.186 304.636 303.436 312.654L260.006 511.658C258.382 519.096 259.214 527.651 262.271 534.967L349.606 743.94C352.541 750.965 357.239 756.149 362.495 758.164L514.509 816.463C520.274 818.674 526.066 816.831 530.132 811.491L631.666 678.147C635.732 672.807 637.594 664.598 636.689 656.005L612.828 429.404C612.003 421.568 608.959 414.212 604.476 409.219L471.117 260.691C466.448 255.491 460.701 253.391 455.46 254.968L315.23 297.166Z" stroke="url(#paint49_linear_1328_1913)" stroke-width="4"/>
<path opacity="0.73913" d="M311.5 291.21C305.643 292.541 300.88 298.167 298.77 306.245L248.451 498.86C246.543 506.163 247.015 514.667 249.739 522.051L328.149 734.625C330.73 741.621 335.085 746.94 340.137 749.266L487.985 817.337C493.7 819.968 499.661 818.477 504.024 813.323L608.883 689.471C613.246 684.318 615.486 676.124 614.91 667.423L599.999 442.337C599.489 434.646 596.828 427.327 592.672 422.191L466.418 266.127C462.032 260.705 456.427 258.263 451.133 259.467L311.5 291.21Z" stroke="url(#paint50_linear_1328_1913)" stroke-width="4"/>
<path opacity="0.753623" d="M307.864 286.278C301.802 287.217 296.654 292.672 294.168 300.791L237.312 486.49C235.125 493.636 235.244 502.056 237.638 509.479L307.106 724.863C309.343 731.801 313.361 737.222 318.201 739.834L461.599 817.204C467.251 820.254 473.379 819.129 478.044 814.185L585.801 699.994C590.467 695.05 593.094 686.897 592.852 678.114L586.715 455.287C586.508 447.766 584.215 440.518 580.382 435.27L461.408 272.349C457.307 266.734 451.854 263.966 446.519 264.793L307.864 286.278Z" stroke="url(#paint51_linear_1328_1913)" stroke-width="4"/>
<path opacity="0.768116" d="M304.279 282.369C298.016 282.892 292.469 288.146 289.594 296.279L226.571 474.578C224.109 481.544 223.883 489.851 225.953 497.285L286.488 714.687C288.397 721.541 292.086 727.036 296.71 729.909L435.394 816.087C440.97 819.553 447.26 818.811 452.232 814.102L562.457 709.696C567.429 704.987 570.452 696.907 570.55 688.067L572.981 468.224C573.062 460.895 571.121 453.743 567.605 448.413L456.061 279.326C452.247 273.544 446.952 270.466 441.588 270.914L304.279 282.369Z" stroke="url(#paint52_linear_1328_1913)" stroke-width="4"/>
<path opacity="0.782609" d="M300.699 279.478C294.24 279.558 288.283 284.575 285.006 292.694L216.201 463.15C213.472 469.912 212.909 478.08 214.662 485.499L266.307 704.129C267.901 710.878 271.274 716.422 275.679 719.534L409.406 814.015C414.893 817.892 421.341 817.55 426.621 813.104L538.887 718.565C544.167 714.118 547.593 706.145 548.035 697.275L558.8 481.116C559.155 473.997 557.55 466.965 554.34 461.576L450.35 287.025C446.821 281.102 441.691 277.729 436.31 277.795L300.699 279.478Z" stroke="url(#paint53_linear_1328_1913)" stroke-width="4"/>
<path opacity="0.797101" d="M297.081 277.593C290.435 277.205 284.059 281.944 280.368 290.013L206.183 452.226C203.192 458.765 202.303 466.767 203.746 474.151L246.575 693.223C247.871 699.851 250.939 705.424 255.125 708.753L383.675 811.015C389.059 815.298 395.656 815.376 401.244 811.223L515.129 726.586C520.717 722.434 524.552 714.603 525.341 705.733L544.18 493.935C544.793 487.038 543.505 480.142 540.591 474.717L444.253 295.412C441.006 289.369 436.045 285.715 430.66 285.4L297.081 277.593Z" stroke="url(#paint54_linear_1328_1913)" stroke-width="4"/>
<path opacity="0.811594" d="M293.378 276.7C286.559 275.817 279.759 280.234 275.646 288.216L196.49 441.83C193.247 448.125 192.042 455.939 193.185 463.267L227.302 682.004C228.315 688.499 231.091 694.084 235.061 697.613L358.236 807.123C363.503 811.805 370.24 812.322 376.133 808.495L491.224 733.755C497.117 729.929 501.362 722.28 502.501 713.439L529.125 506.649C529.983 499.985 528.995 493.239 526.364 487.795L437.745 304.451C434.776 298.308 429.989 294.386 424.612 293.69L293.378 276.7Z" stroke="url(#paint55_linear_1328_1913)" stroke-width="4"/>
<path opacity="0.826087" d="M289.548 276.779C282.572 275.377 275.348 279.421 270.806 287.272L187.099 431.98C183.612 438.009 182.103 445.615 182.954 452.871L208.498 670.508C209.243 676.861 211.742 682.446 215.498 686.157L333.124 802.374C338.259 807.447 345.124 808.421 351.316 804.954L467.209 740.066C473.401 736.599 478.057 729.175 479.545 720.394L513.643 519.229C514.732 512.805 514.026 506.216 511.666 500.767L430.805 314.101C428.109 307.878 423.498 303.699 418.141 302.622L289.548 276.779Z" stroke="url(#paint56_linear_1328_1913)" stroke-width="4"/>
<path opacity="0.84058" d="M285.545 277.805C278.432 275.86 270.79 279.482 265.819 287.153L177.985 422.692C174.262 428.437 172.46 435.816 173.029 442.986L190.169 658.774C190.662 664.98 192.896 670.557 196.443 674.435L308.369 796.807C313.358 802.262 320.337 803.712 326.818 800.641L443.126 745.52C449.607 742.449 454.668 735.293 456.506 726.603L497.742 531.645C499.049 525.466 498.609 519.039 496.506 513.596L423.412 324.325C420.984 318.037 416.552 313.612 411.225 312.156L285.545 277.805Z" stroke="url(#paint57_linear_1328_1913)" stroke-width="4"/>
<path opacity="0.855072" d="M281.327 279.748C274.102 277.241 266.056 280.386 260.657 287.826L169.122 413.98C165.174 419.421 163.09 426.559 163.387 433.63L172.324 646.84C172.578 652.897 174.561 658.458 177.905 662.492L284.004 790.465C288.833 796.29 295.906 798.234 302.662 795.594L419.014 750.121C425.77 747.481 431.229 740.638 433.415 732.072L481.43 543.869C482.943 537.936 482.754 531.674 480.897 526.242L415.548 335.08C413.381 328.74 409.13 324.078 403.845 322.245L281.327 279.748Z" stroke="url(#paint58_linear_1328_1913)" stroke-width="4"/>
<path opacity="0.869565" d="M276.853 282.574C269.543 279.489 261.115 282.102 255.297 289.257L160.485 405.856C156.321 410.976 153.968 417.858 154 424.821L154.967 634.744C154.994 640.653 156.739 646.197 159.887 650.377L260.056 783.392C264.711 789.574 271.857 792.028 278.869 789.855L394.916 753.877C401.928 751.703 407.772 745.221 410.301 736.812L464.717 555.871C466.427 550.185 466.475 544.086 464.852 538.671L407.195 346.324C405.283 339.943 401.214 335.052 395.983 332.845L276.853 282.574Z" stroke="url(#paint59_linear_1328_1913)" stroke-width="4"/>
<path opacity="0.884058" d="M272.081 286.244C264.719 282.57 255.94 284.598 249.717 291.411L152.047 398.329C147.679 403.111 145.067 409.725 144.843 416.573L138.103 622.528C137.914 628.292 139.432 633.817 142.39 638.136L236.55 775.634C241.017 782.159 248.211 785.138 255.456 783.464L370.871 756.802C378.115 755.128 384.326 749.052 387.193 740.834L447.613 567.625C449.511 562.185 449.784 556.245 448.383 550.848L398.339 358.012C396.675 351.6 392.79 346.487 387.622 343.908L272.081 286.244Z" stroke="url(#paint60_linear_1328_1913)" stroke-width="4"/>
<path opacity="0.898551" d="M266.971 290.713C259.594 286.444 250.505 287.838 243.898 294.25L143.783 391.406C139.221 395.834 136.361 402.169 135.888 408.896L121.733 610.229C121.338 615.852 122.639 621.363 125.413 625.817L213.509 767.241C217.776 774.09 224.989 777.605 232.437 776.463L346.919 758.913C354.367 757.771 360.921 752.146 364.118 744.152L430.13 579.103C432.209 573.905 432.696 568.12 431.508 562.74L388.963 370.099C387.542 363.663 383.841 358.333 378.747 355.386L266.971 290.713Z" stroke="url(#paint61_linear_1328_1913)" stroke-width="4"/>
<path opacity="0.913043" d="M261.49 295.931C254.138 291.071 244.791 291.786 237.827 297.74L135.669 385.092C130.923 389.15 127.825 395.198 127.11 401.8L105.86 597.89C105.265 603.378 106.359 608.879 108.957 613.467L190.958 758.262C195.011 765.419 202.21 769.475 209.826 768.893L323.103 760.234C330.72 759.652 337.588 754.521 341.106 746.785L412.281 590.28C414.536 585.322 415.23 579.684 414.245 574.317L379.059 382.541C377.874 376.084 374.359 370.542 369.349 367.23L261.49 295.931Z" stroke="url(#paint62_linear_1328_1913)" stroke-width="4"/>
<path opacity="0.927536" d="M255.603 301.846C248.319 296.405 238.775 296.405 231.491 301.846L127.677 379.39C122.76 383.063 119.433 388.816 118.48 395.29L90.4829 585.549C89.6939 590.91 90.5877 596.408 93.0156 601.131L168.913 748.751C172.74 756.194 179.889 760.792 187.634 760.792L299.46 760.792C307.205 760.792 314.354 756.194 318.181 748.751L394.078 601.131C396.506 596.408 397.4 590.91 396.611 585.549L368.614 395.29C367.661 388.816 364.334 383.063 359.417 379.39L255.603 301.846Z" stroke="url(#paint63_linear_1328_1913)" stroke-width="4"/>
<path opacity="0.942029" d="M249.28 308.399C242.109 302.397 232.439 301.658 224.877 306.534L119.782 374.3C114.706 377.573 111.157 383.023 109.971 389.368L75.5992 573.246C74.6193 578.488 75.3189 583.994 77.5826 588.855L147.392 738.759C150.981 746.466 158.04 751.601 165.869 752.2L276.026 760.62C283.855 761.218 291.244 757.188 295.365 750.07L375.535 611.63C378.135 607.141 379.225 601.772 378.626 596.41L357.621 408.298C356.896 401.808 353.757 395.846 348.943 391.817L249.28 308.399Z" stroke="url(#paint64_linear_1328_1913)" stroke-width="4"/>
<path opacity="0.956522" d="M242.495 315.532C235.484 308.999 225.765 307.509 217.977 311.773L111.959 369.819C106.735 372.679 102.972 377.821 101.556 384.034L61.2063 561.022C60.0364 566.153 60.5457 571.677 62.6502 576.683L126.407 728.343C129.748 736.289 136.676 741.947 144.541 743.153L252.835 759.755C260.7 760.96 268.284 757.526 272.684 750.767L356.666 621.756C359.438 617.497 360.723 612.249 360.31 606.875L346.072 421.519C345.572 415.011 342.624 408.841 337.922 404.46L242.495 315.532Z" stroke="url(#paint65_linear_1328_1913)" stroke-width="4"/>
<path opacity="0.971014" d="M235.227 323.183C228.423 316.157 218.739 313.92 210.779 317.535L104.181 365.945C98.8236 368.378 94.8539 373.204 93.2082 379.285L47.2996 548.915C45.9384 553.944 46.259 559.498 48.2083 564.658L105.971 717.556C109.053 725.715 115.808 731.877 123.656 733.69L229.919 758.238C237.767 760.051 245.496 757.235 250.156 750.865L337.485 631.485C340.432 627.456 341.914 622.319 341.685 616.922L333.962 434.903C333.685 428.377 330.932 421.999 326.352 417.27L235.227 323.183Z" stroke="url(#paint66_linear_1328_1913)" stroke-width="4"/>
<path opacity="0.985507" d="M227.461 331.29C220.907 323.82 211.346 320.856 203.276 323.792L96.4258 362.671C90.9478 364.664 86.7773 369.168 84.9024 375.114L33.8736 536.964C32.3176 541.9 32.4489 547.498 34.2459 552.823L86.0928 706.455C88.9079 714.797 95.4461 721.434 103.224 723.845L207.304 756.113C215.081 758.524 222.905 756.34 227.803 750.389L318.01 640.797C321.136 636.999 322.817 631.962 322.772 626.53L321.288 448.4C321.234 441.856 318.68 435.268 314.231 430.197L227.461 331.29Z" stroke="url(#paint67_linear_1328_1913)" stroke-width="4"/>
<path d="M219.184 339.792C212.924 331.935 203.57 328.279 195.455 330.519L88.6673 359.989C83.0839 361.53 78.7186 365.704 76.6135 371.513L20.9216 525.208C19.1646 530.057 19.1038 535.715 20.7497 541.217L66.7789 695.095C69.3199 703.59 75.5998 710.665 83.2531 713.656L185.012 753.426C192.666 756.417 200.53 754.87 205.642 749.366L298.255 649.671C301.566 646.107 303.453 641.163 303.594 635.682L308.05 461.963C308.219 455.397 305.869 448.599 301.562 443.193L219.184 339.792Z" stroke="url(#paint68_linear_1328_1913)" stroke-width="4"/>
</g>
<defs>
<linearGradient id="paint0_linear_1328_1913" x1="1235.82" y1="1069.48" x2="977.857" y2="-47.192" gradientUnits="userSpaceOnUse">
<stop stop-color="#FF1CF7"/>
<stop offset="1" stop-color="#00F0FF"/>
</linearGradient>
<linearGradient id="paint1_linear_1328_1913" x1="1200.75" y1="1068.75" x2="1027.32" y2="-62.5385" gradientUnits="userSpaceOnUse">
<stop stop-color="#FF1CF7"/>
<stop offset="1" stop-color="#00F0FF"/>
</linearGradient>
<linearGradient id="paint2_linear_1328_1913" x1="1165.91" y1="1066.45" x2="1079.06" y2="-69.7548" gradientUnits="userSpaceOnUse">
<stop stop-color="#FF1CF7"/>
<stop offset="1" stop-color="#00F0FF"/>
</linearGradient>
<linearGradient id="paint3_linear_1328_1913" x1="1131.38" y1="1062.62" x2="1131.38" y2="-68.4047" gradientUnits="userSpaceOnUse">
<stop stop-color="#FF1CF7"/>
<stop offset="1" stop-color="#00F0FF"/>
</linearGradient>
<linearGradient id="paint4_linear_1328_1913" x1="1097.2" y1="1057.29" x2="1182.49" y2="-58.4954" gradientUnits="userSpaceOnUse">
<stop stop-color="#FF1CF7"/>
<stop offset="1" stop-color="#00F0FF"/>
</linearGradient>
<linearGradient id="paint5_linear_1328_1913" x1="1063.43" y1="1050.51" x2="1230.68" y2="-40.478" gradientUnits="userSpaceOnUse">
<stop stop-color="#FF1CF7"/>
<stop offset="1" stop-color="#00F0FF"/>
</linearGradient>
<linearGradient id="paint6_linear_1328_1913" x1="1030.12" y1="1042.33" x2="1274.43" y2="-15.2048" gradientUnits="userSpaceOnUse">
<stop stop-color="#FF1CF7"/>
<stop offset="1" stop-color="#00F0FF"/>
</linearGradient>
<linearGradient id="paint7_linear_1328_1913" x1="997.313" y1="1032.79" x2="1312.5" y2="16.1544" gradientUnits="userSpaceOnUse">
<stop stop-color="#FF1CF7"/>
<stop offset="1" stop-color="#00F0FF"/>
</linearGradient>
<linearGradient id="paint8_linear_1328_1913" x1="965.058" y1="1021.96" x2="1344.05" y2="52.2334" gradientUnits="userSpaceOnUse">
<stop stop-color="#FF1CF7"/>
<stop offset="1" stop-color="#00F0FF"/>
</linearGradient>
<linearGradient id="paint9_linear_1328_1913" x1="933.399" y1="1009.88" x2="1368.59" y2="91.5851" gradientUnits="userSpaceOnUse">
<stop stop-color="#FF1CF7"/>
<stop offset="1" stop-color="#00F0FF"/>
</linearGradient>
<linearGradient id="paint10_linear_1328_1913" x1="902.377" y1="996.61" x2="1386.02" y2="132.795" gradientUnits="userSpaceOnUse">
<stop stop-color="#FF1CF7"/>
<stop offset="1" stop-color="#00F0FF"/>
</linearGradient>
<linearGradient id="paint11_linear_1328_1913" x1="872.03" y1="982.224" x2="1396.52" y2="174.565" gradientUnits="userSpaceOnUse">
<stop stop-color="#FF1CF7"/>
<stop offset="1" stop-color="#00F0FF"/>
</linearGradient>
<linearGradient id="paint12_linear_1328_1913" x1="842.392" y1="966.783" x2="1400.52" y2="215.775" gradientUnits="userSpaceOnUse">
<stop stop-color="#FF1CF7"/>
<stop offset="1" stop-color="#00F0FF"/>
</linearGradient>
<linearGradient id="paint13_linear_1328_1913" x1="813.498" y1="950.354" x2="1398.63" y2="255.508" gradientUnits="userSpaceOnUse">
<stop stop-color="#FF1CF7"/>
<stop offset="1" stop-color="#00F0FF"/>
</linearGradient>
<linearGradient id="paint14_linear_1328_1913" x1="785.377" y1="933.004" x2="1391.53" y2="293.061" gradientUnits="userSpaceOnUse">
<stop stop-color="#FF1CF7"/>
<stop offset="1" stop-color="#00F0FF"/>
</linearGradient>
<linearGradient id="paint15_linear_1328_1913" x1="758.055" y1="914.811" x2="1379.97" y2="327.938" gradientUnits="userSpaceOnUse">
<stop stop-color="#FF1CF7"/>
<stop offset="1" stop-color="#00F0FF"/>
</linearGradient>
<linearGradient id="paint16_linear_1328_1913" x1="731.558" y1="895.844" x2="1364.68" y2="359.812" gradientUnits="userSpaceOnUse">
<stop stop-color="#FF1CF7"/>
<stop offset="1" stop-color="#00F0FF"/>
</linearGradient>
<linearGradient id="paint17_linear_1328_1913" x1="705.904" y1="876.179" x2="1346.35" y2="388.514" gradientUnits="userSpaceOnUse">
<stop stop-color="#FF1CF7"/>
<stop offset="1" stop-color="#00F0FF"/>
</linearGradient>
<linearGradient id="paint18_linear_1328_1913" x1="681.112" y1="855.891" x2="1325.64" y2="413.997" gradientUnits="userSpaceOnUse">
<stop stop-color="#FF1CF7"/>
<stop offset="1" stop-color="#00F0FF"/>
</linearGradient>
<linearGradient id="paint19_linear_1328_1913" x1="657.196" y1="835.055" x2="1303.13" y2="436.307" gradientUnits="userSpaceOnUse">
<stop stop-color="#FF1CF7"/>
<stop offset="1" stop-color="#00F0FF"/>
</linearGradient>
<linearGradient id="paint20_linear_1328_1913" x1="634.169" y1="813.75" x2="1279.32" y2="455.567" gradientUnits="userSpaceOnUse">
<stop stop-color="#FF1CF7"/>
<stop offset="1" stop-color="#00F0FF"/>
</linearGradient>
<linearGradient id="paint21_linear_1328_1913" x1="612.037" y1="792.052" x2="1254.66" y2="471.948" gradientUnits="userSpaceOnUse">
<stop stop-color="#FF1CF7"/>
<stop offset="1" stop-color="#00F0FF"/>
</linearGradient>
<linearGradient id="paint22_linear_1328_1913" x1="590.808" y1="770.037" x2="1229.52" y2="485.657" gradientUnits="userSpaceOnUse">
<stop stop-color="#FF1CF7"/>
<stop offset="1" stop-color="#00F0FF"/>
</linearGradient>
<linearGradient id="paint23_linear_1328_1913" x1="570.484" y1="747.782" x2="1204.22" y2="496.925" gradientUnits="userSpaceOnUse">
<stop stop-color="#FF1CF7"/>
<stop offset="1" stop-color="#00F0FF"/>
</linearGradient>
<linearGradient id="paint24_linear_1328_1913" x1="551.063" y1="725.363" x2="1179.03" y2="505.995" gradientUnits="userSpaceOnUse">
<stop stop-color="#FF1CF7"/>
<stop offset="1" stop-color="#00F0FF"/>
</linearGradient>
<linearGradient id="paint25_linear_1328_1913" x1="532.541" y1="702.856" x2="1154.14" y2="513.113" gradientUnits="userSpaceOnUse">
<stop stop-color="#FF1CF7"/>
<stop offset="1" stop-color="#00F0FF"/>
</linearGradient>
<linearGradient id="paint26_linear_1328_1913" x1="514.913" y1="680.336" x2="1129.73" y2="518.528" gradientUnits="userSpaceOnUse">
<stop stop-color="#FF1CF7"/>
<stop offset="1" stop-color="#00F0FF"/>
</linearGradient>
<linearGradient id="paint27_linear_1328_1913" x1="498.169" y1="657.875" x2="1105.94" y2="522.483" gradientUnits="userSpaceOnUse">
<stop stop-color="#FF1CF7"/>
<stop offset="1" stop-color="#00F0FF"/>
</linearGradient>
<linearGradient id="paint28_linear_1328_1913" x1="482.297" y1="635.544" x2="1082.86" y2="525.215" gradientUnits="userSpaceOnUse">
<stop stop-color="#FF1CF7"/>
<stop offset="1" stop-color="#00F0FF"/>
</linearGradient>
<linearGradient id="paint29_linear_1328_1913" x1="467.281" y1="613.414" x2="1060.57" y2="526.954" gradientUnits="userSpaceOnUse">
<stop stop-color="#FF1CF7"/>
<stop offset="1" stop-color="#00F0FF"/>
</linearGradient>
<linearGradient id="paint30_linear_1328_1913" x1="453.105" y1="591.552" x2="1039.11" y2="527.918" gradientUnits="userSpaceOnUse">
<stop stop-color="#FF1CF7"/>
<stop offset="1" stop-color="#00F0FF"/>
</linearGradient>
<linearGradient id="paint31_linear_1328_1913" x1="439.75" y1="570.025" x2="1018.52" y2="528.319" gradientUnits="userSpaceOnUse">
<stop stop-color="#FF1CF7"/>
<stop offset="1" stop-color="#00F0FF"/>
</linearGradient>
<linearGradient id="paint32_linear_1328_1913" x1="427.19" y1="548.896" x2="998.794" y2="528.357" gradientUnits="userSpaceOnUse">
<stop stop-color="#FF1CF7"/>
<stop offset="1" stop-color="#00F0FF"/>
</linearGradient>
<linearGradient id="paint33_linear_1328_1913" x1="415.403" y1="528.226" x2="979.93" y2="528.226" gradientUnits="userSpaceOnUse">
<stop stop-color="#FF1CF7"/>
<stop offset="1" stop-color="#00F0FF"/>
</linearGradient>
<linearGradient id="paint34_linear_1328_1913" x1="404.363" y1="508.072" x2="961.905" y2="528.105" gradientUnits="userSpaceOnUse">
<stop stop-color="#FF1CF7"/>
<stop offset="1" stop-color="#00F0FF"/>
</linearGradient>
<linearGradient id="paint35_linear_1328_1913" x1="394.038" y1="488.492" x2="944.678" y2="528.171" gradientUnits="userSpaceOnUse">
<stop stop-color="#FF1CF7"/>
<stop offset="1" stop-color="#00F0FF"/>
</linearGradient>
<linearGradient id="paint36_linear_1328_1913" x1="384.4" y1="469.537" x2="928.198" y2="528.587" gradientUnits="userSpaceOnUse">
<stop stop-color="#FF1CF7"/>
<stop offset="1" stop-color="#00F0FF"/>
</linearGradient>
<linearGradient id="paint37_linear_1328_1913" x1="375.416" y1="451.256" x2="912.401" y2="529.511" gradientUnits="userSpaceOnUse">
<stop stop-color="#FF1CF7"/>
<stop offset="1" stop-color="#00F0FF"/>
</linearGradient>
<linearGradient id="paint38_linear_1328_1913" x1="367.05" y1="433.697" x2="897.209" y2="531.091" gradientUnits="userSpaceOnUse">
<stop stop-color="#FF1CF7"/>
<stop offset="1" stop-color="#00F0FF"/>
</linearGradient>
<linearGradient id="paint39_linear_1328_1913" x1="359.269" y1="416.901" x2="882.529" y2="533.466" gradientUnits="userSpaceOnUse">
<stop stop-color="#FF1CF7"/>
<stop offset="1" stop-color="#00F0FF"/>
</linearGradient>
<linearGradient id="paint40_linear_1328_1913" x1="352.034" y1="400.908" x2="868.256" y2="536.767" gradientUnits="userSpaceOnUse">
<stop stop-color="#FF1CF7"/>
<stop offset="1" stop-color="#00F0FF"/>
</linearGradient>
<linearGradient id="paint41_linear_1328_1913" x1="345.307" y1="385.753" x2="854.27" y2="541.115" gradientUnits="userSpaceOnUse">
<stop stop-color="#FF1CF7"/>
<stop offset="1" stop-color="#00F0FF"/>
</linearGradient>
<linearGradient id="paint42_linear_1328_1913" x1="339.05" y1="371.47" x2="840.436" y2="546.621" gradientUnits="userSpaceOnUse">
<stop stop-color="#FF1CF7"/>
<stop offset="1" stop-color="#00F0FF"/>
</linearGradient>
<linearGradient id="paint43_linear_1328_1913" x1="333.221" y1="358.086" x2="826.599" y2="553.382" gradientUnits="userSpaceOnUse">
<stop stop-color="#FF1CF7"/>
<stop offset="1" stop-color="#00F0FF"/>
</linearGradient>
<linearGradient id="paint44_linear_1328_1913" x1="327.781" y1="345.626" x2="812.588" y2="561.48" gradientUnits="userSpaceOnUse">
<stop stop-color="#FF1CF7"/>
<stop offset="1" stop-color="#00F0FF"/>
</linearGradient>
<linearGradient id="paint45_linear_1328_1913" x1="322.687" y1="334.111" x2="798.214" y2="570.981" gradientUnits="userSpaceOnUse">
<stop stop-color="#FF1CF7"/>
<stop offset="1" stop-color="#00F0FF"/>
</linearGradient>
<linearGradient id="paint46_linear_1328_1913" x1="317.898" y1="323.558" x2="783.264" y2="581.926" gradientUnits="userSpaceOnUse">
<stop stop-color="#FF1CF7"/>
<stop offset="1" stop-color="#00F0FF"/>
</linearGradient>
<linearGradient id="paint47_linear_1328_1913" x1="313.371" y1="313.981" x2="767.51" y2="594.331" gradientUnits="userSpaceOnUse">
<stop stop-color="#FF1CF7"/>
<stop offset="1" stop-color="#00F0FF"/>
</linearGradient>
<linearGradient id="paint48_linear_1328_1913" x1="309.065" y1="305.389" x2="750.701" y2="608.177" gradientUnits="userSpaceOnUse">
<stop stop-color="#FF1CF7"/>
<stop offset="1" stop-color="#00F0FF"/>
</linearGradient>
<linearGradient id="paint49_linear_1328_1913" x1="304.937" y1="297.788" x2="732.567" y2="623.404" gradientUnits="userSpaceOnUse">
<stop stop-color="#FF1CF7"/>
<stop offset="1" stop-color="#00F0FF"/>
</linearGradient>
<linearGradient id="paint50_linear_1328_1913" x1="300.945" y1="291.181" x2="712.83" y2="639.905" gradientUnits="userSpaceOnUse">
<stop stop-color="#FF1CF7"/>
<stop offset="1" stop-color="#00F0FF"/>
</linearGradient>
<linearGradient id="paint51_linear_1328_1913" x1="297.046" y1="285.565" x2="691.2" y2="657.51" gradientUnits="userSpaceOnUse">
<stop stop-color="#FF1CF7"/>
<stop offset="1" stop-color="#00F0FF"/>
</linearGradient>
<linearGradient id="paint52_linear_1328_1913" x1="293.202" y1="280.936" x2="667.395" y2="675.987" gradientUnits="userSpaceOnUse">
<stop stop-color="#FF1CF7"/>
<stop offset="1" stop-color="#00F0FF"/>
</linearGradient>
<linearGradient id="paint53_linear_1328_1913" x1="289.369" y1="277.286" x2="641.148" y2="695.025" gradientUnits="userSpaceOnUse">
<stop stop-color="#FF1CF7"/>
<stop offset="1" stop-color="#00F0FF"/>
</linearGradient>
<linearGradient id="paint54_linear_1328_1913" x1="285.51" y1="274.601" x2="612.234" y2="714.234" gradientUnits="userSpaceOnUse">
<stop stop-color="#FF1CF7"/>
<stop offset="1" stop-color="#00F0FF"/>
</linearGradient>
<linearGradient id="paint55_linear_1328_1913" x1="281.585" y1="272.867" x2="580.487" y2="733.146" gradientUnits="userSpaceOnUse">
<stop stop-color="#FF1CF7"/>
<stop offset="1" stop-color="#00F0FF"/>
</linearGradient>
<linearGradient id="paint56_linear_1328_1913" x1="277.556" y1="272.064" x2="545.829" y2="751.218" gradientUnits="userSpaceOnUse">
<stop stop-color="#FF1CF7"/>
<stop offset="1" stop-color="#00F0FF"/>
</linearGradient>
<linearGradient id="paint57_linear_1328_1913" x1="273.386" y1="272.172" x2="508.298" y2="767.855" gradientUnits="userSpaceOnUse">
<stop stop-color="#FF1CF7"/>
<stop offset="1" stop-color="#00F0FF"/>
</linearGradient>
<linearGradient id="paint58_linear_1328_1913" x1="269.041" y1="273.165" x2="468.073" y2="782.43" gradientUnits="userSpaceOnUse">
<stop stop-color="#FF1CF7"/>
<stop offset="1" stop-color="#00F0FF"/>
</linearGradient>
<linearGradient id="paint59_linear_1328_1913" x1="264.486" y1="275.014" x2="425.489" y2="794.332" gradientUnits="userSpaceOnUse">
<stop stop-color="#FF1CF7"/>
<stop offset="1" stop-color="#00F0FF"/>
</linearGradient>
<linearGradient id="paint60_linear_1328_1913" x1="259.689" y1="277.692" x2="381.045" y2="803.01" gradientUnits="userSpaceOnUse">
<stop stop-color="#FF1CF7"/>
<stop offset="1" stop-color="#00F0FF"/>
</linearGradient>
<linearGradient id="paint61_linear_1328_1913" x1="254.619" y1="281.162" x2="335.387" y2="808.02" gradientUnits="userSpaceOnUse">
<stop stop-color="#FF1CF7"/>
<stop offset="1" stop-color="#00F0FF"/>
</linearGradient>
<linearGradient id="paint62_linear_1328_1913" x1="249.248" y1="285.392" x2="289.279" y2="809.086" gradientUnits="userSpaceOnUse">
<stop stop-color="#FF1CF7"/>
<stop offset="1" stop-color="#00F0FF"/>
</linearGradient>
<linearGradient id="paint63_linear_1328_1913" x1="243.547" y1="290.342" x2="243.547" y2="806.12" gradientUnits="userSpaceOnUse">
<stop stop-color="#FF1CF7"/>
<stop offset="1" stop-color="#00F0FF"/>
</linearGradient>
<linearGradient id="paint64_linear_1328_1913" x1="237.491" y1="295.974" x2="199.021" y2="799.251" gradientUnits="userSpaceOnUse">
<stop stop-color="#FF1CF7"/>
<stop offset="1" stop-color="#00F0FF"/>
</linearGradient>
<linearGradient id="paint65_linear_1328_1913" x1="231.058" y1="302.245" x2="156.467" y2="788.808" gradientUnits="userSpaceOnUse">
<stop stop-color="#FF1CF7"/>
<stop offset="1" stop-color="#00F0FF"/>
</linearGradient>
<linearGradient id="paint66_linear_1328_1913" x1="224.225" y1="309.113" x2="116.53" y2="775.296" gradientUnits="userSpaceOnUse">
<stop stop-color="#FF1CF7"/>
<stop offset="1" stop-color="#00F0FF"/>
</linearGradient>
<linearGradient id="paint67_linear_1328_1913" x1="216.972" y1="316.533" x2="79.6901" y2="759.34" gradientUnits="userSpaceOnUse">
<stop stop-color="#FF1CF7"/>
<stop offset="1" stop-color="#00F0FF"/>
</linearGradient>
<linearGradient id="paint68_linear_1328_1913" x1="209.284" y1="324.459" x2="46.2437" y2="741.633" gradientUnits="userSpaceOnUse">
<stop stop-color="#FF1CF7"/>
<stop offset="1" stop-color="#00F0FF"/>
</linearGradient>
</defs>
</svg>
