<svg width="52" height="52" viewBox="0 0 52 52" fill="none" xmlns="http://www.w3.org/2000/svg">
<rect width="52" height="52" rx="12" fill="#EBDEFF"/>
<path d="M40.3814 46.9998H13.582C13.4645 47.0021 13.3478 46.982 13.2398 46.9409C13.1319 46.8999 13.0354 46.8388 12.9567 46.7619C12.8781 46.685 12.8193 46.5941 12.7842 46.4954C12.7492 46.3967 12.7388 46.2925 12.7537 46.1899L17.3525 6.0544C17.3816 5.83453 17.5003 5.63138 17.6865 5.48249C17.8728 5.33361 18.114 5.24906 18.3656 5.24446H45.165C45.2824 5.24245 45.399 5.2627 45.5068 5.30383C45.6146 5.34497 45.711 5.40602 45.7896 5.48286C45.8682 5.55969 45.927 5.6505 45.9622 5.74912C45.9973 5.84774 46.0079 5.95186 45.9933 6.0544L41.3945 46.1899C41.3653 46.4098 41.2466 46.6129 41.0604 46.7618C40.8742 46.9107 40.633 46.9952 40.3814 46.9998V46.9998Z" fill="#5F4DFF"/>
<path d="M36.3686 8.28524H26.4654C26.3711 8.28692 26.2775 8.2707 26.191 8.23768C26.1045 8.20467 26.0271 8.15564 25.9641 8.09394C25.901 8.03224 25.8538 7.95931 25.8257 7.88012C25.7976 7.80093 25.7892 7.71734 25.8012 7.63505L26.0767 5.22064C26.0827 5.18959 26.1005 5.16122 26.1271 5.14012C26.1537 5.11901 26.1876 5.10641 26.2233 5.10434H37.3403C37.3572 5.10399 37.3739 5.10687 37.3893 5.11278C37.4048 5.11868 37.4186 5.12747 37.4298 5.13853C37.441 5.14959 37.4494 5.16266 37.4543 5.17684C37.4592 5.19102 37.4605 5.20596 37.4582 5.22064L37.1826 7.63505C37.1589 7.81155 37.0634 7.97454 36.9138 8.09402C36.7642 8.2135 36.5706 8.28141 36.3686 8.28524V8.28524Z" fill="#263238"/>
<path d="M31.9094 4.00012C31.7069 4.00367 31.5127 4.07162 31.3628 4.19142C31.2128 4.31121 31.1173 4.47473 31.0938 4.65172L30.9775 5.66344H32.459L32.5736 4.65172C32.5858 4.56932 32.5776 4.48557 32.5496 4.40621C32.5216 4.32685 32.4745 4.25375 32.4114 4.19188C32.3484 4.13002 32.2709 4.08086 32.1842 4.04777C32.0976 4.01467 32.0038 3.99842 31.9094 4.00012V4.00012ZM31.7979 4.96981C31.7596 4.97071 31.7216 4.9643 31.6864 4.951C31.6512 4.9377 31.6197 4.91784 31.5941 4.89279C31.5685 4.86774 31.5494 4.83809 31.5381 4.8059C31.5268 4.77372 31.5236 4.73975 31.5287 4.70637C31.5383 4.63499 31.577 4.5691 31.6377 4.52092C31.6983 4.47273 31.7767 4.44552 31.8584 4.44433C31.8965 4.44368 31.9342 4.45023 31.9692 4.46353C32.0041 4.47682 32.0354 4.49655 32.0609 4.52139C32.0864 4.54623 32.1056 4.5756 32.1171 4.60751C32.1286 4.63942 32.1322 4.67313 32.1276 4.70637C32.118 4.77788 32.0794 4.84394 32.0188 4.89235C31.9582 4.94076 31.8797 4.96827 31.7979 4.96981V4.96981Z" fill="#263238"/>
<path d="M36.2493 7.6897H32.2399C32.2185 7.68963 32.1972 7.68575 32.1775 7.67828C32.1578 7.67082 32.14 7.65993 32.1252 7.64626C32.1104 7.63272 32.0988 7.61669 32.0911 7.59911C32.0834 7.58153 32.0799 7.56278 32.0806 7.54397C32.0839 7.48307 32.0734 7.4222 32.0496 7.36493C32.0258 7.30766 31.9892 7.25515 31.942 7.21047C31.8938 7.16754 31.8362 7.13362 31.7727 7.11074C31.7092 7.08787 31.6411 7.07651 31.5725 7.07734C31.4153 7.0805 31.2643 7.13154 31.1452 7.22176C31.0261 7.31197 30.9463 7.43577 30.9194 7.572C30.9133 7.60515 30.8938 7.63528 30.8646 7.65688C30.8354 7.67849 30.7983 7.69014 30.7601 7.6897H26.7539C26.7314 7.68985 26.7091 7.68581 26.6885 7.67784C26.6679 7.66987 26.6495 7.65815 26.6344 7.64346C26.6196 7.62891 26.6084 7.6118 26.6015 7.59322C26.5947 7.57463 26.5923 7.555 26.5946 7.53556L26.7953 5.78817C26.7993 5.75348 26.8178 5.72134 26.8472 5.69802C26.8767 5.6747 26.915 5.66188 26.9546 5.66205H36.4484C36.4708 5.66195 36.4929 5.66598 36.5133 5.67389C36.5338 5.68179 36.5521 5.69338 36.5671 5.70792C36.5821 5.72245 36.5935 5.7396 36.6005 5.75825C36.6075 5.77691 36.61 5.79665 36.6077 5.81619L36.407 7.56359C36.4031 7.59803 36.3848 7.62998 36.3557 7.65326C36.3266 7.67655 36.2887 7.68953 36.2493 7.6897V7.6897ZM32.3897 7.40945H36.1044L36.2732 5.94231H27.098L26.9291 7.40945H30.6374C30.7016 7.23455 30.8262 7.0816 30.9937 6.97185C31.1613 6.8621 31.3636 6.80101 31.5725 6.79709C31.77 6.79458 31.9617 6.85531 32.1121 6.96798C32.2624 7.08064 32.3611 7.23754 32.3897 7.40945Z" fill="white"/>
<path d="M35.7003 5.81197C35.7009 5.77336 35.7128 5.73553 35.7348 5.70215C35.7569 5.66876 35.7883 5.64094 35.8262 5.6214H27.543C27.5051 5.64094 27.4736 5.66876 27.4516 5.70215C27.4295 5.73553 27.4177 5.77336 27.4171 5.81197C27.3996 5.96331 27.4984 6.00255 27.4984 6.00255H35.7816C35.7816 6.00255 35.6828 5.96331 35.7003 5.81197Z" fill="#5F4DFF"/>
<path d="M40.4705 45.7737H13.9053L18.4085 6.46918H44.9737L40.4705 45.7737Z" fill="white"/>
<path d="M42.8648 10.617H19.5826C19.5615 10.617 19.5412 10.6096 19.5263 10.5965C19.5113 10.5833 19.5029 10.5655 19.5029 10.5469C19.5029 10.5283 19.5113 10.5105 19.5263 10.4974C19.5412 10.4843 19.5615 10.4769 19.5826 10.4769H42.8648C42.8859 10.4769 42.9062 10.4843 42.9211 10.4974C42.936 10.5105 42.9444 10.5283 42.9444 10.5469C42.9444 10.5655 42.936 10.5833 42.9211 10.5965C42.9062 10.6096 42.8859 10.617 42.8648 10.617Z" fill="#263238"/>
<path d="M22.6154 8.75746C22.5745 9.05891 22.4113 9.33725 22.1559 9.54137C21.9004 9.7455 21.5698 9.86171 21.2248 9.86868C21.0633 9.87258 20.9028 9.84557 20.7543 9.78951C20.6058 9.73344 20.473 9.64967 20.365 9.54398C20.257 9.43829 20.1763 9.31322 20.1287 9.17741C20.081 9.04161 20.0675 8.89832 20.089 8.75746C20.13 8.45602 20.2932 8.17768 20.5486 7.97355C20.8041 7.76942 21.1347 7.65321 21.4797 7.64624C21.6412 7.64234 21.8017 7.66935 21.9502 7.72542C22.0986 7.78148 22.2315 7.86525 22.3395 7.97094C22.4475 8.07663 22.5281 8.2017 22.5758 8.33751C22.6234 8.47331 22.637 8.6166 22.6154 8.75746V8.75746Z" fill="#5F4DFF"/>
<path d="M20.6341 8.59071C20.6341 8.59071 19.9556 9.37823 20.1563 9.61785C20.357 9.85747 22.2414 8.50944 22.6938 8.04702C23.1462 7.58459 22.6157 7.76676 22.6157 7.76676C22.6157 7.76676 22.8149 7.77657 22.7081 7.9181C22.4899 8.20957 20.701 9.24932 20.5194 9.19327C20.3379 9.13721 20.6341 8.59071 20.6341 8.59071Z" fill="#263238"/>
<path d="M42.827 8.38475H40.4376C40.3954 8.38475 40.3548 8.36999 40.325 8.34371C40.2951 8.31743 40.2783 8.28178 40.2783 8.24462C40.2783 8.20746 40.2951 8.17181 40.325 8.14553C40.3548 8.11926 40.3954 8.10449 40.4376 8.10449H42.827C42.8693 8.10449 42.9098 8.11926 42.9396 8.14553C42.9695 8.17181 42.9863 8.20746 42.9863 8.24462C42.9863 8.28178 42.9695 8.31743 42.9396 8.34371C42.9098 8.36999 42.8693 8.38475 42.827 8.38475Z" fill="#263238"/>
<path d="M42.7517 9.0377H41.2081C41.1659 9.0377 41.1254 9.02294 41.0955 8.99666C41.0656 8.97038 41.0488 8.93474 41.0488 8.89757C41.0488 8.86041 41.0656 8.82477 41.0955 8.79849C41.1254 8.77221 41.1659 8.75745 41.2081 8.75745H42.7517C42.7939 8.75745 42.8344 8.77221 42.8643 8.79849C42.8942 8.82477 42.911 8.86041 42.911 8.89757C42.911 8.93474 42.8942 8.97038 42.8643 8.99666C42.8344 9.02294 42.7939 9.0377 42.7517 9.0377Z" fill="#263238"/>
<path d="M42.677 9.69072H38.6437C38.6014 9.69072 38.5609 9.67595 38.531 9.64968C38.5012 9.6234 38.4844 9.58775 38.4844 9.55059C38.4844 9.51343 38.5012 9.47779 38.531 9.45151C38.5609 9.42523 38.6014 9.41046 38.6437 9.41046H42.677C42.7192 9.41046 42.7597 9.42523 42.7896 9.45151C42.8195 9.47779 42.8363 9.51343 42.8363 9.55059C42.8363 9.58775 42.8195 9.6234 42.7896 9.64968C42.7597 9.67595 42.7192 9.69072 42.677 9.69072Z" fill="#263238"/>
<path d="M25.6053 12.2985C25.6257 12.1292 25.7178 11.9729 25.8633 11.8607C26.0089 11.7485 26.1972 11.6887 26.3906 11.6932C26.4866 11.6884 26.5826 11.7037 26.6706 11.7378C26.7587 11.7719 26.8363 11.8238 26.8972 11.8893L26.7219 12.0225C26.6811 11.9774 26.6289 11.9413 26.5694 11.917C26.51 11.8927 26.445 11.8808 26.3795 11.8823C26.2486 11.8794 26.1215 11.9206 26.0241 11.9975C25.9267 12.0743 25.8663 12.181 25.8554 12.2957C25.8443 12.3494 25.8473 12.4047 25.8642 12.4573C25.8811 12.5098 25.9115 12.5582 25.9531 12.5988C25.9946 12.6394 26.0462 12.6711 26.1038 12.6914C26.1614 12.7118 26.2236 12.7202 26.2855 12.7161C26.3551 12.716 26.424 12.7035 26.4881 12.6795C26.5521 12.6554 26.61 12.6202 26.6582 12.576L26.8032 12.7161C26.7313 12.7805 26.6452 12.8313 26.5501 12.8653C26.455 12.8993 26.353 12.9158 26.2504 12.9137C26.1591 12.92 26.0673 12.908 25.9821 12.8786C25.8968 12.8492 25.8202 12.8031 25.7581 12.7439C25.696 12.6847 25.6499 12.6138 25.6235 12.5367C25.597 12.4595 25.5908 12.3781 25.6053 12.2985V12.2985Z" fill="black"/>
<path d="M26.9663 12.2985C26.9878 12.1278 27.0819 11.9707 27.2295 11.8584C27.3772 11.7462 27.5677 11.6871 27.7627 11.6931C27.8533 11.6867 27.9443 11.6983 28.0291 11.7269C28.1139 11.7556 28.1903 11.8006 28.2527 11.8587C28.3151 11.9168 28.3618 11.9865 28.3895 12.0626C28.4172 12.1387 28.4251 12.2193 28.4126 12.2985C28.3915 12.468 28.2987 12.6244 28.1527 12.7365C28.0066 12.8486 27.8179 12.9084 27.6241 12.9038C27.5331 12.9108 27.4414 12.8997 27.3559 12.8714C27.2704 12.8431 27.1932 12.7982 27.13 12.7401C27.0669 12.6819 27.0194 12.6121 26.991 12.5357C26.9627 12.4592 26.9542 12.3782 26.9663 12.2985V12.2985ZM28.1562 12.2985C28.1661 12.2458 28.1624 12.1919 28.1454 12.1407C28.1284 12.0895 28.0985 12.0423 28.058 12.0026C28.0174 11.9629 27.9673 11.9317 27.9112 11.9114C27.8551 11.8911 27.7946 11.8821 27.734 11.8851C27.6044 11.884 27.4791 11.9259 27.3831 12.0026C27.2871 12.0792 27.2276 12.1849 27.2163 12.2985C27.2054 12.3516 27.2083 12.4062 27.2248 12.4582C27.2413 12.5102 27.271 12.5582 27.3116 12.5986C27.3522 12.6391 27.4027 12.6709 27.4594 12.6918C27.516 12.7126 27.5772 12.7218 27.6385 12.7189C27.7694 12.7199 27.8958 12.677 27.9919 12.5989C28.0881 12.5208 28.1469 12.4133 28.1562 12.2985V12.2985Z" fill="black"/>
<path d="M29.9272 11.71L29.7918 12.887H29.5879L28.9412 12.0897L28.8504 12.8884H28.6035L28.7389 11.7114H28.9428L29.5895 12.5087L29.6803 11.7114L29.9272 11.71Z" fill="black"/>
<path d="M30.5372 11.8949H30.0928L30.1151 11.71H31.2556L31.2349 11.8949H30.7921L30.6774 12.887H30.4289L30.5372 11.8949Z" fill="black"/>
<path d="M32.1779 12.8884L31.9437 12.5437H31.5901L31.5503 12.887H31.3018L31.4372 11.71H31.9883C32.3388 11.71 32.5395 11.8683 32.5092 12.1303C32.5018 12.2137 32.4667 12.2933 32.4084 12.3593C32.3501 12.4253 32.271 12.4748 32.1811 12.5017L32.4455 12.8884H32.1779ZM31.9549 11.8963H31.6649L31.6108 12.3658H31.9007C32.1189 12.3658 32.2416 12.2775 32.2591 12.1303C32.2766 11.9832 32.1731 11.8949 31.9549 11.8949V11.8963Z" fill="black"/>
<path d="M33.5994 12.6082H32.9304L32.7711 12.8884H32.5146L33.2506 11.7114H33.4863L33.9642 12.8884H33.7046L33.5994 12.6082ZM33.5373 12.4372L33.343 11.923L33.0339 12.4372H33.5373Z" fill="black"/>
<path d="M34.0845 12.2985C34.1049 12.1292 34.197 11.9729 34.3425 11.8607C34.4881 11.7485 34.6763 11.6887 34.8698 11.6932C34.9658 11.6884 35.0618 11.7037 35.1498 11.7378C35.2379 11.7719 35.3155 11.8238 35.3764 11.8893L35.2011 12.0225C35.1602 11.9774 35.108 11.9413 35.0486 11.917C34.9892 11.8927 34.9242 11.8808 34.8586 11.8823C34.7279 11.8798 34.601 11.9211 34.5037 11.9979C34.4063 12.0746 34.3459 12.1811 34.3346 12.2957C34.3234 12.3494 34.3265 12.4047 34.3434 12.4573C34.3603 12.5098 34.3907 12.5582 34.4323 12.5988C34.4738 12.6394 34.5254 12.6711 34.583 12.6914C34.6406 12.7118 34.7028 12.7202 34.7647 12.7161C34.8343 12.7161 34.9033 12.7037 34.9673 12.6796C35.0314 12.6555 35.0892 12.6203 35.1374 12.576L35.2824 12.7161C35.2105 12.7805 35.1244 12.8313 35.0293 12.8653C34.9342 12.8993 34.8322 12.9158 34.7296 12.9137C34.6384 12.9197 34.5468 12.9075 34.4616 12.878C34.3765 12.8485 34.3 12.8025 34.238 12.7433C34.1759 12.6841 34.1299 12.6134 34.1033 12.5364C34.0767 12.4594 34.0703 12.378 34.0845 12.2985V12.2985Z" fill="black"/>
<path d="M35.8757 11.8949H35.4297L35.4504 11.71H36.5846L36.5639 11.8949H36.121L36.0063 12.887H35.7594L35.8757 11.8949Z" fill="black"/>
<path d="M24.8311 14.5406H19.4152C19.3729 14.5406 19.3324 14.5258 19.3025 14.4995C19.2726 14.4732 19.2559 14.4376 19.2559 14.4004C19.2559 14.3633 19.2726 14.3276 19.3025 14.3014C19.3324 14.2751 19.3729 14.2603 19.4152 14.2603H24.8311C24.8733 14.2603 24.9139 14.2751 24.9437 14.3014C24.9736 14.3276 24.9904 14.3633 24.9904 14.4004C24.9904 14.4376 24.9736 14.4732 24.9437 14.4995C24.9139 14.5258 24.8733 14.5406 24.8311 14.5406Z" fill="#263238"/>
<path d="M22.0391 15.2972H19.3312C19.2889 15.2972 19.2484 15.2825 19.2185 15.2562C19.1887 15.2299 19.1719 15.1943 19.1719 15.1571C19.1719 15.1199 19.1887 15.0843 19.2185 15.058C19.2484 15.0317 19.2889 15.017 19.3312 15.017H22.0391C22.0814 15.017 22.1219 15.0317 22.1518 15.058C22.1817 15.0843 22.1984 15.1199 22.1984 15.1571C22.1984 15.1943 22.1817 15.2299 22.1518 15.2562C22.1219 15.2825 22.0814 15.2972 22.0391 15.2972Z" fill="#263238"/>
<path d="M41.4362 19.2531H18.8819C18.8397 19.2531 18.7992 19.2383 18.7693 19.2121C18.7394 19.1858 18.7227 19.1501 18.7227 19.113C18.7227 19.0758 18.7394 19.0402 18.7693 19.0139C18.7992 18.9876 18.8397 18.9728 18.8819 18.9728H41.4362C41.4784 18.9728 41.519 18.9876 41.5488 19.0139C41.5787 19.0402 41.5955 19.0758 41.5955 19.113C41.5955 19.1501 41.5787 19.1858 41.5488 19.2121C41.519 19.2383 41.4784 19.2531 41.4362 19.2531Z" fill="#263238"/>
<path d="M41.3372 20.1177H18.7814C18.7391 20.1177 18.6986 20.1029 18.6687 20.0766C18.6389 20.0503 18.6221 20.0147 18.6221 19.9775C18.6221 19.9404 18.6389 19.9047 18.6687 19.8784C18.6986 19.8522 18.7391 19.8374 18.7814 19.8374H41.3372C41.3795 19.8374 41.42 19.8522 41.4498 19.8784C41.4797 19.9047 41.4965 19.9404 41.4965 19.9775C41.4965 20.0147 41.4797 20.0503 41.4498 20.0766C41.42 20.1029 41.3795 20.1177 41.3372 20.1177V20.1177Z" fill="#263238"/>
<path d="M41.2386 20.9809H18.6827C18.6405 20.9809 18.6 20.9661 18.5701 20.9398C18.5402 20.9136 18.5234 20.8779 18.5234 20.8408C18.5234 20.8036 18.5402 20.7679 18.5701 20.7417C18.6 20.7154 18.6405 20.7006 18.6827 20.7006H41.2386C41.2808 20.7006 41.3213 20.7154 41.3512 20.7417C41.3811 20.7679 41.3979 20.8036 41.3979 20.8408C41.3979 20.8779 41.3811 20.9136 41.3512 20.9398C41.3213 20.9661 41.2808 20.9809 41.2386 20.9809V20.9809Z" fill="#263238"/>
<path d="M41.1399 21.844H18.5841C18.5419 21.844 18.5013 21.8293 18.4715 21.803C18.4416 21.7767 18.4248 21.7411 18.4248 21.7039C18.4248 21.6667 18.4416 21.6311 18.4715 21.6048C18.5013 21.5785 18.5419 21.5638 18.5841 21.5638H41.1399C41.1822 21.5638 41.2227 21.5785 41.2526 21.6048C41.2824 21.6311 41.2992 21.6667 41.2992 21.7039C41.2992 21.7411 41.2824 21.7767 41.2526 21.803C41.2227 21.8293 41.1822 21.844 41.1399 21.844V21.844Z" fill="#263238"/>
<path d="M41.0397 22.7072H18.4855C18.4432 22.7072 18.4027 22.6924 18.3728 22.6662C18.343 22.6399 18.3262 22.6042 18.3262 22.5671C18.3262 22.5299 18.343 22.4943 18.3728 22.468C18.4027 22.4417 18.4432 22.4269 18.4855 22.4269H41.0397C41.082 22.4269 41.1225 22.4417 41.1524 22.468C41.1822 22.4943 41.199 22.5299 41.199 22.5671C41.199 22.6042 41.1822 22.6399 41.1524 22.6662C41.1225 22.6924 41.082 22.7072 41.0397 22.7072Z" fill="#263238"/>
<path d="M40.9411 23.5718H18.3868C18.3446 23.5718 18.3041 23.5571 18.2742 23.5308C18.2443 23.5045 18.2275 23.4689 18.2275 23.4317C18.2275 23.3945 18.2443 23.3589 18.2742 23.3326C18.3041 23.3063 18.3446 23.2916 18.3868 23.2916H40.9411C40.9833 23.2916 41.0238 23.3063 41.0537 23.3326C41.0836 23.3589 41.1004 23.3945 41.1004 23.4317C41.1004 23.4689 41.0836 23.5045 41.0537 23.5308C41.0238 23.5571 40.9833 23.5718 40.9411 23.5718Z" fill="#263238"/>
<path d="M40.8424 24.435H18.2882C18.246 24.435 18.2054 24.4202 18.1756 24.3939C18.1457 24.3677 18.1289 24.332 18.1289 24.2949C18.1289 24.2577 18.1457 24.222 18.1756 24.1958C18.2054 24.1695 18.246 24.1547 18.2882 24.1547H40.8424C40.8847 24.1547 40.9252 24.1695 40.9551 24.1958C40.985 24.222 41.0017 24.2577 41.0017 24.2949C41.0017 24.332 40.985 24.3677 40.9551 24.3939C40.9252 24.4202 40.8847 24.435 40.8424 24.435Z" fill="#263238"/>
<path d="M40.7429 25.2982H18.1935C18.1512 25.2982 18.1107 25.2834 18.0808 25.2572C18.051 25.2309 18.0342 25.1952 18.0342 25.1581C18.0342 25.1209 18.051 25.0853 18.0808 25.059C18.1107 25.0327 18.1512 25.0179 18.1935 25.0179H40.7429C40.7852 25.0179 40.8257 25.0327 40.8556 25.059C40.8855 25.0853 40.9022 25.1209 40.9022 25.1581C40.9022 25.1952 40.8855 25.2309 40.8556 25.2572C40.8257 25.2834 40.7852 25.2982 40.7429 25.2982Z" fill="#263238"/>
<path d="M29.4937 26.1614H18.09C18.0477 26.1614 18.0072 26.1466 17.9773 26.1203C17.9474 26.094 17.9307 26.0584 17.9307 26.0212C17.9307 25.9841 17.9474 25.9484 17.9773 25.9221C18.0072 25.8959 18.0477 25.8811 18.09 25.8811H29.4937C29.536 25.8811 29.5765 25.8959 29.6064 25.9221C29.6362 25.9484 29.653 25.9841 29.653 26.0212C29.653 26.0584 29.6362 26.094 29.6064 26.1203C29.5765 26.1466 29.536 26.1614 29.4937 26.1614V26.1614Z" fill="#263238"/>
<path d="M42.1439 14.5406H38.254C38.2118 14.5406 38.1713 14.5258 38.1414 14.4995C38.1115 14.4732 38.0947 14.4376 38.0947 14.4004C38.0947 14.3633 38.1115 14.3276 38.1414 14.3014C38.1713 14.2751 38.2118 14.2603 38.254 14.2603H42.1439C42.1862 14.2603 42.2267 14.2751 42.2566 14.3014C42.2865 14.3276 42.3032 14.3633 42.3032 14.4004C42.3032 14.4376 42.2865 14.4732 42.2566 14.4995C42.2267 14.5258 42.1862 14.5406 42.1439 14.5406Z" fill="#263238"/>
<path d="M40.52 27.3328H20.3663C20.3241 27.3328 20.2836 27.318 20.2537 27.2918C20.2238 27.2655 20.207 27.2298 20.207 27.1927C20.207 27.1555 20.2238 27.1199 20.2537 27.0936C20.2836 27.0673 20.3241 27.0526 20.3663 27.0526H40.52C40.5623 27.0526 40.6028 27.0673 40.6327 27.0936C40.6625 27.1199 40.6793 27.1555 40.6793 27.1927C40.6793 27.2298 40.6625 27.2655 40.6327 27.2918C40.6028 27.318 40.5623 27.3328 40.52 27.3328Z" fill="#263238"/>
<path d="M40.4124 28.196H17.8566C17.8143 28.196 17.7738 28.1813 17.7439 28.155C17.714 28.1287 17.6973 28.0931 17.6973 28.0559C17.6973 28.0187 17.714 27.9831 17.7439 27.9568C17.7738 27.9305 17.8143 27.9158 17.8566 27.9158H40.4124C40.4546 27.9158 40.4952 27.9305 40.525 27.9568C40.5549 27.9831 40.5717 28.0187 40.5717 28.0559C40.5717 28.0931 40.5549 28.1287 40.525 28.155C40.4952 28.1813 40.4546 28.196 40.4124 28.196Z" fill="#263238"/>
<path d="M40.3128 29.0607H17.7569C17.7147 29.0607 17.6742 29.0459 17.6443 29.0196C17.6144 28.9933 17.5977 28.9577 17.5977 28.9205C17.5977 28.8834 17.6144 28.8477 17.6443 28.8214C17.6742 28.7952 17.7147 28.7804 17.7569 28.7804H40.3128C40.355 28.7804 40.3956 28.7952 40.4254 28.8214C40.4553 28.8477 40.4721 28.8834 40.4721 28.9205C40.4721 28.9577 40.4553 28.9933 40.4254 29.0196C40.3956 29.0459 40.355 29.0607 40.3128 29.0607Z" fill="#263238"/>
<path d="M40.2126 29.9238H17.6583C17.6161 29.9238 17.5755 29.909 17.5457 29.8828C17.5158 29.8565 17.499 29.8208 17.499 29.7837C17.499 29.7465 17.5158 29.7109 17.5457 29.6846C17.5755 29.6583 17.6161 29.6436 17.6583 29.6436H40.2126C40.2548 29.6436 40.2953 29.6583 40.3252 29.6846C40.3551 29.7109 40.3719 29.7465 40.3719 29.7837C40.3719 29.8208 40.3551 29.8565 40.3252 29.8828C40.2953 29.909 40.2548 29.9238 40.2126 29.9238Z" fill="#263238"/>
<path d="M40.1142 30.787H17.5568C17.5145 30.787 17.474 30.7723 17.4441 30.746C17.4142 30.7197 17.3975 30.6841 17.3975 30.6469C17.3975 30.6097 17.4142 30.5741 17.4441 30.5478C17.474 30.5215 17.5145 30.5068 17.5568 30.5068H40.1142C40.1564 30.5068 40.197 30.5215 40.2268 30.5478C40.2567 30.5741 40.2735 30.6097 40.2735 30.6469C40.2735 30.6841 40.2567 30.7197 40.2268 30.746C40.197 30.7723 40.1564 30.787 40.1142 30.787Z" fill="#263238"/>
<path d="M25.6806 31.6516H17.4611C17.4188 31.6516 17.3783 31.6368 17.3484 31.6106C17.3185 31.5843 17.3018 31.5486 17.3018 31.5115C17.3018 31.4743 17.3185 31.4387 17.3484 31.4124C17.3783 31.3861 17.4188 31.3713 17.4611 31.3713H25.6806C25.7228 31.3713 25.7633 31.3861 25.7932 31.4124C25.8231 31.4387 25.8398 31.4743 25.8398 31.5115C25.8398 31.5486 25.8231 31.5843 25.7932 31.6106C25.7633 31.6368 25.7228 31.6516 25.6806 31.6516Z" fill="#263238"/>
<g opacity="0.2">
<path d="M40.4705 45.7737H13.9053L18.4085 6.46918H44.9737L40.4705 45.7737Z" fill="black"/>
</g>
<path d="M36.1717 44.5868H9.60645C14.484 31.9445 17.4309 19.1115 18.0904 6.47198H44.6556C43.9993 19.1115 41.0492 31.9459 36.1717 44.5868Z" fill="white"/>
<path d="M42.5828 10.4782H19.299C19.2781 10.4779 19.2582 10.4706 19.2431 10.4579C19.228 10.4452 19.219 10.4279 19.2178 10.4095C19.2176 10.4005 19.2194 10.3916 19.2233 10.3832C19.2272 10.3749 19.2329 10.3673 19.2403 10.361C19.2476 10.3547 19.2563 10.3498 19.2658 10.3466C19.2754 10.3434 19.2856 10.3419 19.2958 10.3423H42.5781C42.5991 10.3419 42.6195 10.3487 42.6349 10.3612C42.6503 10.3738 42.6597 10.3911 42.6609 10.4095C42.6611 10.4186 42.6592 10.4276 42.6554 10.436C42.6516 10.4445 42.6458 10.4521 42.6385 10.4585C42.6312 10.4649 42.6225 10.47 42.613 10.4734C42.6034 10.4768 42.5931 10.4784 42.5828 10.4782Z" fill="#263238"/>
<path d="M22.2625 8.68457C22.2315 8.97906 22.0763 9.25267 21.8275 9.45157C21.5787 9.65047 21.2543 9.76027 20.9181 9.75935C20.7582 9.76355 20.5991 9.73833 20.451 9.68531C20.3029 9.63229 20.169 9.55264 20.0579 9.45146C19.9467 9.35029 19.8609 9.22981 19.8057 9.09775C19.7506 8.96569 19.7275 8.82496 19.7377 8.68457C19.7669 8.39106 19.9202 8.11787 20.1674 7.91909C20.4146 7.72031 20.7377 7.61042 21.0726 7.61119C21.2328 7.60689 21.3922 7.63193 21.5408 7.68471C21.6894 7.73748 21.8239 7.81685 21.9358 7.91778C22.0477 8.0187 22.1345 8.13898 22.1907 8.27098C22.247 8.40298 22.2714 8.54382 22.2625 8.68457V8.68457Z" fill="#5F4DFF"/>
<path d="M20.2743 8.51785C20.2743 8.51785 19.6371 9.27875 19.8426 9.51136C20.0481 9.74398 21.8847 8.43938 22.31 7.99378C22.7353 7.54817 22.216 7.72613 22.2176 7.72613C22.2192 7.72613 22.4167 7.73454 22.318 7.87327C22.1173 8.15352 20.3746 9.15824 20.1882 9.10499C20.0019 9.05174 20.2743 8.51785 20.2743 8.51785Z" fill="#263238"/>
<path d="M42.4574 8.31887H40.068C40.0464 8.31982 40.0248 8.3169 40.0046 8.31029C39.9843 8.30367 39.9658 8.2935 39.9502 8.28039C39.9345 8.26728 39.9221 8.25151 39.9136 8.23404C39.9051 8.21656 39.9007 8.19775 39.9007 8.17875C39.8993 8.16002 39.9025 8.14125 39.91 8.12369C39.9175 8.10613 39.9292 8.09018 39.9442 8.07691C39.9593 8.06364 39.9775 8.05336 39.9974 8.04676C40.0174 8.04016 40.0387 8.03738 40.06 8.03862H42.4494C42.4916 8.03862 42.5322 8.05338 42.562 8.07966C42.5919 8.10594 42.6087 8.14158 42.6087 8.17875C42.61 8.19686 42.6071 8.21501 42.6 8.23207C42.593 8.24913 42.582 8.26473 42.5678 8.27789C42.5536 8.29104 42.5365 8.30148 42.5175 8.30853C42.4985 8.31558 42.478 8.3191 42.4574 8.31887Z" fill="#263238"/>
<path d="M42.4063 8.95083H40.8627C40.8205 8.95083 40.78 8.93607 40.7501 8.90979C40.7202 8.88351 40.7035 8.84787 40.7035 8.8107C40.702 8.79198 40.7052 8.77321 40.7127 8.75565C40.7202 8.73808 40.7319 8.72214 40.747 8.70887C40.7621 8.6956 40.7802 8.68532 40.8002 8.67872C40.8201 8.67211 40.8415 8.66934 40.8627 8.67058H42.4063C42.4485 8.67058 42.4891 8.68534 42.5189 8.71162C42.5488 8.7379 42.5656 8.77354 42.5656 8.8107C42.5656 8.84787 42.5488 8.88351 42.5189 8.90979C42.4891 8.93607 42.4485 8.95083 42.4063 8.95083Z" fill="#263238"/>
<path d="M42.363 9.58144H38.3297C38.2874 9.58144 38.2469 9.56667 38.217 9.5404C38.1872 9.51412 38.1704 9.47847 38.1704 9.44131C38.1687 9.42253 38.1717 9.40366 38.1791 9.38599C38.1865 9.36832 38.1982 9.35227 38.2133 9.33895C38.2285 9.32563 38.2467 9.31536 38.2668 9.30884C38.2869 9.30232 38.3083 9.29971 38.3297 9.30118H42.3614C42.4036 9.30118 42.4441 9.31595 42.474 9.34222C42.5039 9.3685 42.5207 9.40415 42.5207 9.44131C42.522 9.45991 42.5189 9.47855 42.5115 9.49601C42.5041 9.51347 42.4926 9.52935 42.4777 9.54259C42.4627 9.55584 42.4448 9.56615 42.425 9.57284C42.4053 9.57954 42.3841 9.58247 42.363 9.58144V9.58144Z" fill="#263238"/>
<path d="M25.3623 12.1051C25.3824 11.9392 25.4737 11.7862 25.6175 11.6773C25.7614 11.5685 25.947 11.512 26.1365 11.5194C26.2323 11.5153 26.3279 11.5304 26.4161 11.5634C26.5044 11.5964 26.5831 11.6465 26.6462 11.71L26.4742 11.8389C26.4325 11.7943 26.3799 11.7586 26.3203 11.7344C26.2607 11.7101 26.1958 11.6979 26.1301 11.6987C26.0019 11.6943 25.8766 11.7335 25.7802 11.8081C25.6839 11.8827 25.6238 11.987 25.6124 12.0995C25.6049 12.1523 25.6108 12.2059 25.6298 12.2563C25.6488 12.3068 25.6803 12.353 25.7221 12.3914C25.764 12.4298 25.815 12.4595 25.8715 12.4783C25.928 12.4971 25.9886 12.5047 26.0489 12.5003C26.1183 12.5002 26.187 12.4878 26.2508 12.4637C26.3146 12.4396 26.3722 12.4044 26.42 12.3601L26.5666 12.4905C26.4942 12.5535 26.408 12.6028 26.3133 12.6356C26.2185 12.6684 26.1172 12.6838 26.0154 12.681C25.6061 12.6908 25.3273 12.4456 25.3623 12.1051Z" fill="black"/>
<path d="M26.7224 12.1051C26.7437 11.9388 26.8359 11.7858 26.9805 11.6771C27.1251 11.5683 27.3113 11.512 27.5014 11.5194C27.9155 11.5194 28.1975 11.766 28.1624 12.1051C28.1412 12.2717 28.0487 12.4249 27.9038 12.5337C27.7588 12.6425 27.5722 12.6987 27.3819 12.6909C26.9678 12.6909 26.689 12.4428 26.7224 12.1051ZM27.9124 12.1051C27.9198 12.0529 27.914 11.9998 27.8953 11.9498C27.8767 11.8997 27.8458 11.8539 27.8047 11.8156C27.7636 11.7773 27.7133 11.7475 27.6576 11.7282C27.6019 11.709 27.542 11.7009 27.4823 11.7044C27.3554 11.7018 27.2321 11.7418 27.1374 11.8162C27.0428 11.8906 26.9838 11.9939 26.9725 12.1051C26.9649 12.1573 26.9704 12.2103 26.9889 12.2604C27.0073 12.3105 27.0381 12.3563 27.0791 12.3946C27.1201 12.433 27.1702 12.4628 27.2259 12.4821C27.2815 12.5013 27.3413 12.5094 27.401 12.5059C27.5278 12.5081 27.6509 12.468 27.7455 12.3937C27.8401 12.3193 27.8991 12.2162 27.9108 12.1051H27.9124Z" fill="black"/>
<path d="M29.6728 11.5362C29.6356 11.9164 29.5968 12.2962 29.5565 12.6754H29.3526C29.1344 12.4176 28.9145 12.1612 28.6947 11.9033C28.6692 12.1612 28.6422 12.4176 28.6151 12.6754H28.3682C28.4096 12.2962 28.4483 11.9164 28.4844 11.5362H28.6883C28.9098 11.7926 29.1296 12.0505 29.3494 12.3069C29.3749 12.0505 29.402 11.7926 29.4259 11.5362H29.6728Z" fill="black"/>
<path d="M30.2856 11.7142H29.8428C29.8428 11.6553 29.8539 11.595 29.8603 11.5362H30.9945C30.9945 11.595 30.9833 11.6553 30.9769 11.7142H30.5341C30.5022 12.035 30.4704 12.3545 30.4353 12.6754H30.1868C30.2219 12.3545 30.2537 12.035 30.2856 11.7142Z" fill="black"/>
<path d="M31.9429 12.6754L31.7039 12.3419H31.3503C31.3392 12.4526 31.328 12.5633 31.3153 12.674H31.0684C31.1087 12.2948 31.1469 11.915 31.1831 11.5348H31.7342C32.0846 11.5348 32.2885 11.6875 32.2631 11.9398C32.2566 12.0208 32.2229 12.0984 32.1661 12.1625C32.1094 12.2267 32.0322 12.2745 31.9445 12.2999C32.0353 12.4246 32.1245 12.5493 32.2137 12.674L31.9429 12.6754ZM31.7039 11.7142H31.4156C31.4013 11.8655 31.3854 12.0168 31.371 12.1682H31.6609C31.8792 12.1682 32.0002 12.0841 32.0146 11.9412C32.0289 11.7982 31.9222 11.7142 31.7039 11.7142V11.7142Z" fill="black"/>
<path d="M33.3602 12.412H32.6896L32.5303 12.6754H32.2754C32.5165 12.2962 32.7554 11.9164 32.9922 11.5362H33.2375C33.4021 11.9164 33.5646 12.2962 33.725 12.6754H33.4653L33.3602 12.412ZM33.2949 12.2452C33.228 12.0799 33.1611 11.9131 33.0926 11.7478C32.9922 11.9131 32.8934 12.0799 32.7915 12.2452H33.2949Z" fill="black"/>
<path d="M33.8411 12.1051C33.8612 11.9392 33.9524 11.7862 34.0963 11.6773C34.2401 11.5685 34.4257 11.512 34.6153 11.5194C34.7113 11.5151 34.8072 11.5301 34.8958 11.5631C34.9843 11.5961 35.0632 11.6463 35.1266 11.71C35.0677 11.752 35.0103 11.7954 34.953 11.8389C34.9112 11.7943 34.8586 11.7586 34.7991 11.7344C34.7395 11.7101 34.6745 11.6979 34.6089 11.6987C34.4806 11.6943 34.3553 11.7335 34.259 11.8081C34.1626 11.8827 34.1025 11.987 34.0912 12.0995C34.0836 12.1523 34.0896 12.2059 34.1085 12.2563C34.1275 12.3068 34.1591 12.353 34.2009 12.3914C34.2427 12.4298 34.2937 12.4595 34.3503 12.4783C34.4068 12.4972 34.4674 12.5047 34.5277 12.5003C34.5971 12.5002 34.6658 12.4878 34.7296 12.4637C34.7934 12.4396 34.8509 12.4044 34.8988 12.3602L35.0454 12.4905C34.973 12.5535 34.8868 12.6029 34.7921 12.6356C34.6973 12.6684 34.596 12.6838 34.4942 12.681C34.0848 12.6909 33.8045 12.4456 33.8411 12.1051Z" fill="black"/>
<path d="M35.6206 11.7142H35.1777C35.1777 11.6553 35.1889 11.595 35.1953 11.5362H36.3294C36.3294 11.595 36.3183 11.6553 36.3119 11.7142H35.8754C35.8452 12.035 35.8117 12.3545 35.7767 12.6754H35.5298C35.5568 12.3545 35.5903 12.035 35.6206 11.7142Z" fill="black"/>
<path d="M24.6042 14.2786H19.1883C19.1648 14.2837 19.1402 14.2841 19.1166 14.2797C19.0929 14.2753 19.0706 14.2662 19.0515 14.2531C19.0324 14.24 19.017 14.2232 19.0064 14.2041C18.9958 14.185 18.9902 14.1639 18.9902 14.1426C18.9902 14.1213 18.9958 14.1003 19.0064 14.0812C19.017 14.062 19.0324 14.0453 19.0515 14.0322C19.0706 14.0191 19.0929 14.0099 19.1166 14.0055C19.1402 14.0011 19.1648 14.0015 19.1883 14.0067H24.6042C24.6277 14.0015 24.6522 14.0011 24.6759 14.0055C24.6996 14.0099 24.7218 14.0191 24.7409 14.0322C24.76 14.0453 24.7755 14.062 24.7861 14.0812C24.7967 14.1003 24.8022 14.1213 24.8022 14.1426C24.8022 14.1639 24.7967 14.185 24.7861 14.2041C24.7755 14.2232 24.76 14.24 24.7409 14.2531C24.7218 14.2662 24.6996 14.2753 24.6759 14.2797C24.6522 14.2841 24.6277 14.2837 24.6042 14.2786Z" fill="#263238"/>
<path d="M21.8067 15.0128H19.0987C19.0565 15.0128 19.016 14.998 18.9861 14.9718C18.9562 14.9455 18.9395 14.9098 18.9395 14.8727C18.9395 14.8355 18.9562 14.7999 18.9861 14.7736C19.016 14.7473 19.0565 14.7325 19.0987 14.7325H21.8067C21.849 14.7325 21.8895 14.7473 21.9194 14.7736C21.9492 14.7999 21.966 14.8355 21.966 14.8727C21.966 14.9098 21.9492 14.9455 21.9194 14.9718C21.8895 14.998 21.849 15.0128 21.8067 15.0128Z" fill="#263238"/>
<path d="M41.1051 18.8523H18.5509C18.5086 18.8523 18.4681 18.8375 18.4383 18.8112C18.4084 18.785 18.3916 18.7493 18.3916 18.7121C18.3916 18.675 18.4084 18.6393 18.4383 18.6131C18.4681 18.5868 18.5086 18.572 18.5509 18.572H41.1163C41.1585 18.572 41.1991 18.5868 41.2289 18.6131C41.2588 18.6393 41.2756 18.675 41.2756 18.7121C41.2756 18.7314 41.2712 18.7505 41.2625 18.7681C41.2538 18.7858 41.2411 18.8017 41.2251 18.8149C41.2091 18.828 41.1902 18.8381 41.1695 18.8446C41.1489 18.851 41.127 18.8536 41.1051 18.8523V18.8523Z" fill="#263238"/>
<path d="M40.9727 19.6917H18.4137C18.3923 19.6932 18.3709 19.6905 18.3508 19.684C18.3307 19.6775 18.3124 19.6672 18.2973 19.6539C18.2822 19.6406 18.2705 19.6245 18.2631 19.6069C18.2557 19.5892 18.2527 19.5703 18.2544 19.5515C18.2544 19.5144 18.2711 19.4787 18.301 19.4525C18.3309 19.4262 18.3714 19.4114 18.4137 19.4114H40.9806C41.0019 19.4102 41.0233 19.413 41.0432 19.4196C41.0632 19.4262 41.0813 19.4364 41.0964 19.4497C41.1115 19.463 41.1232 19.4789 41.1307 19.4965C41.1382 19.5141 41.1413 19.5328 41.1399 19.5515C41.14 19.5706 41.1356 19.5894 41.1271 19.6068C41.1186 19.6243 41.1061 19.6401 41.0905 19.6532C41.0749 19.6663 41.0563 19.6765 41.0361 19.6831C41.0158 19.6897 40.9943 19.6926 40.9727 19.6917V19.6917Z" fill="#263238"/>
<path d="M40.8248 20.531H18.269C18.2477 20.5323 18.2264 20.5295 18.2064 20.5229C18.1864 20.5163 18.1683 20.506 18.1532 20.4928C18.1381 20.4795 18.1265 20.4635 18.119 20.446C18.1115 20.4284 18.1083 20.4096 18.1097 20.3909C18.1117 20.3531 18.1303 20.3175 18.1614 20.2914C18.1926 20.2653 18.2339 20.2508 18.277 20.2508H40.8392C40.8814 20.2508 40.9219 20.2656 40.9518 20.2918C40.9817 20.3181 40.9985 20.3538 40.9985 20.3909C40.996 20.4296 40.9765 20.4659 40.944 20.492C40.9116 20.5182 40.8688 20.5322 40.8248 20.531V20.531Z" fill="#263238"/>
<path d="M40.6749 21.3704H18.119C18.0984 21.3709 18.0779 21.3675 18.0589 21.3605C18.0398 21.3535 18.0227 21.3431 18.0085 21.3299C17.9944 21.3166 17.9836 21.3009 17.9768 21.2838C17.9701 21.2666 17.9675 21.2484 17.9693 21.2303C17.9717 21.1926 17.9904 21.1572 18.0214 21.1311C18.0525 21.1051 18.0937 21.0905 18.1366 21.0902H40.6908C40.7116 21.0895 40.7323 21.0927 40.7515 21.0996C40.7707 21.1065 40.7881 21.117 40.8024 21.1302C40.8167 21.1435 40.8277 21.1592 40.8345 21.1765C40.8414 21.1938 40.844 21.2121 40.8421 21.2303C40.8397 21.268 40.8211 21.3034 40.79 21.3295C40.7589 21.3555 40.7178 21.3701 40.6749 21.3704V21.3704Z" fill="#263238"/>
<path d="M40.519 22.2097H17.9647C17.9441 22.2102 17.9236 22.2068 17.9046 22.1998C17.8855 22.1928 17.8684 22.1824 17.8542 22.1692C17.8401 22.1559 17.8293 22.1402 17.8225 22.1231C17.8158 22.1059 17.8132 22.0877 17.815 22.0696C17.8175 22.0317 17.8363 21.996 17.8677 21.97C17.8991 21.9439 17.9407 21.9294 17.9839 21.9295H40.5381C40.5587 21.929 40.5793 21.9324 40.5983 21.9394C40.6174 21.9464 40.6345 21.9568 40.6486 21.9701C40.6628 21.9833 40.6736 21.999 40.6803 22.0162C40.6871 22.0333 40.6896 22.0515 40.6878 22.0696C40.685 22.1074 40.6661 22.1429 40.6347 22.1689C40.6034 22.1949 40.5621 22.2095 40.519 22.2097V22.2097Z" fill="#263238"/>
<path d="M40.3564 23.0492H17.8022C17.7816 23.0496 17.7612 23.0463 17.7422 23.0393C17.7232 23.0323 17.7061 23.0218 17.6921 23.0085C17.6781 22.9953 17.6675 22.9795 17.6609 22.9624C17.6543 22.9452 17.652 22.927 17.654 22.909C17.6569 22.8712 17.6758 22.8358 17.7072 22.8098C17.7385 22.7838 17.7798 22.7692 17.8229 22.7689H40.3771C40.3978 22.7684 40.4183 22.7718 40.4373 22.7788C40.4564 22.7858 40.4735 22.7963 40.4877 22.8095C40.5018 22.8227 40.5126 22.8384 40.5194 22.8556C40.5261 22.8727 40.5287 22.8909 40.5269 22.909C40.5237 22.947 40.5044 22.9824 40.4728 23.0084C40.4412 23.0344 40.3997 23.0489 40.3564 23.0492V23.0492Z" fill="#263238"/>
<path d="M40.1886 23.8885H17.6328C17.6123 23.889 17.5919 23.8857 17.573 23.8786C17.5541 23.8716 17.5371 23.8611 17.5232 23.8478C17.5093 23.8346 17.4988 23.8188 17.4924 23.8016C17.4861 23.7845 17.484 23.7663 17.4862 23.7484C17.4894 23.7105 17.5088 23.675 17.5403 23.649C17.5719 23.6231 17.6135 23.6085 17.6567 23.6083H40.2109C40.2315 23.6078 40.252 23.6111 40.2709 23.6182C40.2899 23.6252 40.307 23.6356 40.321 23.6489C40.335 23.6621 40.3456 23.6779 40.3522 23.695C40.3588 23.7122 40.3611 23.7304 40.3591 23.7484C40.3559 23.7863 40.3366 23.8218 40.305 23.8478C40.2734 23.8737 40.2319 23.8883 40.1886 23.8885V23.8885Z" fill="#263238"/>
<path d="M40.0166 24.7279H17.4592C17.4386 24.7286 17.4181 24.7254 17.399 24.7185C17.38 24.7115 17.3629 24.701 17.349 24.6877C17.335 24.6744 17.3245 24.6585 17.3183 24.6413C17.312 24.624 17.3101 24.6057 17.3126 24.5877C17.3162 24.5497 17.3359 24.5142 17.3677 24.4883C17.3995 24.4623 17.4413 24.4478 17.4847 24.4476H40.0389C40.0595 24.4469 40.08 24.4501 40.0991 24.457C40.1181 24.4639 40.1352 24.4744 40.1491 24.4878C40.1631 24.5011 40.1735 24.517 40.1798 24.5342C40.1861 24.5515 40.188 24.5698 40.1855 24.5877C40.1823 24.6254 40.1632 24.6607 40.1319 24.6866C40.1007 24.7126 40.0596 24.7273 40.0166 24.7279Z" fill="#263238"/>
<path d="M28.6833 25.5672H17.2795C17.2589 25.568 17.2384 25.5648 17.2193 25.5578C17.2003 25.5509 17.1832 25.5404 17.1693 25.5271C17.1553 25.5137 17.1448 25.4979 17.1386 25.4806C17.1323 25.4633 17.1304 25.4451 17.1329 25.4271C17.1365 25.3888 17.1564 25.3531 17.1886 25.3272C17.2208 25.3012 17.2629 25.2868 17.3066 25.287H28.7071C28.7277 25.2862 28.7483 25.2894 28.7673 25.2964C28.7863 25.3033 28.8034 25.3138 28.8174 25.3271C28.8313 25.3405 28.8418 25.3563 28.8481 25.3736C28.8543 25.3909 28.8563 25.4091 28.8537 25.4271C28.8498 25.4648 28.8303 25.4999 28.7988 25.5257C28.7674 25.5516 28.7263 25.5664 28.6833 25.5672Z" fill="#263238"/>
<path d="M41.9161 14.2786H38.0261C38.0027 14.2837 37.9781 14.2841 37.9544 14.2797C37.9307 14.2753 37.9085 14.2662 37.8894 14.2531C37.8703 14.24 37.8549 14.2232 37.8443 14.2041C37.8336 14.185 37.8281 14.1639 37.8281 14.1426C37.8281 14.1213 37.8336 14.1003 37.8443 14.0812C37.8549 14.062 37.8703 14.0453 37.8894 14.0322C37.9085 14.0191 37.9307 14.0099 37.9544 14.0055C37.9781 14.0011 38.0027 14.0015 38.0261 14.0067H41.9161C41.9396 14.0015 41.9641 14.0011 41.9878 14.0055C42.0115 14.0099 42.0337 14.0191 42.0528 14.0322C42.0719 14.0453 42.0873 14.062 42.0979 14.0812C42.1086 14.1003 42.1141 14.1213 42.1141 14.1426C42.1141 14.1639 42.1086 14.185 42.0979 14.2041C42.0873 14.2232 42.0719 14.24 42.0528 14.2531C42.0337 14.2662 42.0115 14.2753 41.9878 14.2797C41.9641 14.2841 41.9396 14.2837 41.9161 14.2786Z" fill="#263238"/>
<path d="M39.5898 26.7065H19.4361C19.4156 26.707 19.3953 26.7036 19.3764 26.6966C19.3576 26.6896 19.3407 26.6791 19.327 26.6657C19.3132 26.6524 19.3028 26.6367 19.2967 26.6195C19.2905 26.6023 19.2886 26.5842 19.2911 26.5663C19.2955 26.528 19.3158 26.4925 19.3481 26.4667C19.3805 26.4408 19.4226 26.4264 19.4664 26.4262H39.6185C39.639 26.4254 39.6595 26.4286 39.6784 26.4356C39.6974 26.4425 39.7144 26.453 39.7283 26.4664C39.7421 26.4798 39.7524 26.4957 39.7585 26.5129C39.7646 26.5302 39.7662 26.5484 39.7634 26.5663C39.7591 26.6044 39.739 26.6397 39.707 26.6655C39.675 26.6914 39.6333 26.706 39.5898 26.7065V26.7065Z" fill="#263238"/>
<path d="M39.38 27.5458H16.8305C16.81 27.5467 16.7896 27.5435 16.7707 27.5365C16.7518 27.5296 16.7348 27.519 16.7211 27.5056C16.7074 27.4922 16.6972 27.4763 16.6914 27.459C16.6855 27.4417 16.684 27.4235 16.6871 27.4057C16.6915 27.3674 16.7118 27.3319 16.7441 27.306C16.7765 27.2801 16.8186 27.2657 16.8623 27.2656H39.4166C39.4371 27.2647 39.4575 27.2679 39.4764 27.2749C39.4953 27.2818 39.5122 27.2924 39.526 27.3058C39.5397 27.3192 39.5498 27.3351 39.5557 27.3524C39.5616 27.3697 39.563 27.3879 39.56 27.4057C39.5552 27.4446 39.5341 27.4805 39.5008 27.5064C39.4675 27.5323 39.4244 27.5464 39.38 27.5458Z" fill="#263238"/>
<path d="M39.1836 28.3852H16.6293C16.6088 28.386 16.5884 28.3828 16.5695 28.3759C16.5506 28.3689 16.5337 28.3584 16.5199 28.345C16.5062 28.3315 16.4961 28.3156 16.4902 28.2984C16.4843 28.2811 16.4829 28.2629 16.486 28.2451C16.4913 28.2069 16.5121 28.1717 16.5446 28.146C16.5771 28.1202 16.6191 28.1056 16.6628 28.1049H39.2202C39.2406 28.1043 39.2609 28.1077 39.2797 28.1147C39.2984 28.1218 39.3152 28.1323 39.3289 28.1457C39.3426 28.159 39.3527 28.1748 39.3587 28.192C39.3647 28.2092 39.3664 28.2273 39.3636 28.2451C39.3581 28.2837 39.3368 28.3193 39.3037 28.3451C39.2705 28.3709 39.2278 28.3851 39.1836 28.3852V28.3852Z" fill="#263238"/>
<path d="M38.9772 29.2246H16.4229C16.4025 29.2255 16.3821 29.2223 16.3632 29.2154C16.3444 29.2084 16.3276 29.1978 16.314 29.1844C16.3004 29.1709 16.2904 29.155 16.2847 29.1377C16.279 29.1204 16.2778 29.1022 16.2812 29.0845C16.2865 29.0463 16.3073 29.0111 16.3398 28.9854C16.3723 28.9597 16.4143 28.9451 16.458 28.9444H39.0138C39.0341 28.9437 39.0543 28.947 39.073 28.9541C39.0916 28.9611 39.1083 28.9718 39.1217 28.9852C39.1351 28.9986 39.145 29.0145 39.1505 29.0316C39.1561 29.0488 39.1573 29.0669 39.154 29.0845C39.1486 29.1227 39.1278 29.1578 39.0953 29.1836C39.0628 29.2093 39.0209 29.2239 38.9772 29.2246V29.2246Z" fill="#263238"/>
<path d="M38.763 30.0639H16.2087C16.1884 30.0648 16.168 30.0617 16.1492 30.0547C16.1304 30.0477 16.1136 30.0371 16.1002 30.0236C16.0867 30.0102 16.0768 29.9942 16.0714 29.9769C16.0659 29.9596 16.0649 29.9414 16.0686 29.9238C16.0743 29.8855 16.0954 29.8503 16.1282 29.8246C16.1609 29.7988 16.2031 29.7843 16.247 29.7837H38.8012C38.8215 29.783 38.8417 29.7863 38.8604 29.7934C38.879 29.8004 38.8957 29.8111 38.9091 29.8245C38.9225 29.8379 38.9324 29.8537 38.938 29.8709C38.9435 29.8881 38.9447 29.9062 38.9414 29.9238C38.936 29.9622 38.9149 29.9976 38.8821 30.0233C38.8493 30.0491 38.807 30.0635 38.763 30.0639V30.0639Z" fill="#263238"/>
<path d="M24.2089 30.9033H15.9894C15.9691 30.904 15.9489 30.9007 15.9303 30.8937C15.9117 30.8866 15.8952 30.8759 15.8819 30.8625C15.8686 30.849 15.8589 30.8331 15.8535 30.816C15.8481 30.7988 15.8472 30.7807 15.8508 30.7632C15.8568 30.725 15.8781 30.69 15.9107 30.6643C15.9434 30.6387 15.9854 30.624 16.0292 30.6231H24.2471C24.2673 30.6224 24.2875 30.6257 24.3061 30.6328C24.3247 30.6398 24.3413 30.6505 24.3546 30.6639C24.3679 30.6774 24.3776 30.6933 24.383 30.7105C24.3883 30.7276 24.3893 30.7457 24.3857 30.7632C24.3797 30.8011 24.3587 30.836 24.3263 30.8616C24.294 30.8873 24.2524 30.902 24.2089 30.9033V30.9033Z" fill="#263238"/>
<g opacity="0.1">
<path d="M36.1717 44.5868H9.60645C14.484 31.9445 17.4309 19.1115 18.0904 6.47198H44.6556C43.9993 19.1115 41.0492 31.9459 36.1717 44.5868Z" fill="black"/>
</g>
<path d="M32.5652 42.1122H6C12.1264 30.291 16.182 18.2904 18.0903 6.46918H44.6556C42.7472 18.2904 38.6916 30.291 32.5652 42.1122Z" fill="white"/>
<path d="M42.3454 10.2176H19.0632C19.0534 10.2182 19.0437 10.217 19.0345 10.214C19.0253 10.2111 19.0169 10.2065 19.0099 10.2006C19.0029 10.1947 18.9973 10.1875 18.9936 10.1796C18.9899 10.1716 18.9881 10.1631 18.9883 10.1545C18.9903 10.1366 19 10.1199 19.0153 10.108C19.0307 10.096 19.0506 10.0896 19.0711 10.0901H42.3549C42.3648 10.0894 42.3747 10.0907 42.384 10.0937C42.3933 10.0967 42.4018 10.1014 42.4088 10.1075C42.4159 10.1136 42.4214 10.1209 42.425 10.129C42.4287 10.1371 42.4303 10.1458 42.4298 10.1545C42.4274 10.1725 42.4174 10.189 42.4017 10.2007C42.386 10.2124 42.3659 10.2184 42.3454 10.2176V10.2176Z" fill="#263238"/>
<path d="M22.2035 8.53609C22.1032 9.0896 21.4501 9.53941 20.7524 9.53941C20.0547 9.53941 19.5768 9.0896 19.6787 8.53609C19.7807 7.98259 20.421 7.53278 21.1124 7.53278C21.8037 7.53278 22.3055 7.98399 22.2035 8.53609Z" fill="#5F4DFF"/>
<path d="M20.2292 8.38475C20.2292 8.38475 19.5124 9.0966 19.7004 9.3138C19.8883 9.531 21.8492 8.31188 22.3175 7.8943C22.7859 7.47672 22.2522 7.64347 22.2522 7.64347C22.2522 7.64347 22.4513 7.65328 22.3383 7.7836C22.1105 8.04564 20.2674 8.9845 20.0874 8.93545C19.9074 8.88641 20.2308 8.38475 20.2292 8.38475Z" fill="#263238"/>
<path d="M42.4335 8.19978H40.0441C40.0239 8.20155 40.0035 8.19956 39.9842 8.19395C39.9649 8.18834 39.9472 8.17923 39.9322 8.1672C39.9171 8.15518 39.9052 8.14052 39.897 8.12416C39.8888 8.10781 39.8847 8.09013 39.8848 8.07227C39.8887 8.03758 39.9072 8.00544 39.9367 7.98212C39.9662 7.9588 40.0044 7.94597 40.0441 7.94615H42.4335C42.4536 7.94394 42.4741 7.94557 42.4935 7.95092C42.5129 7.95628 42.5307 7.96525 42.5458 7.97721C42.5609 7.98917 42.5729 8.00384 42.581 8.02025C42.5891 8.03665 42.5931 8.05439 42.5927 8.07227C42.5892 8.1072 42.5708 8.13968 42.5413 8.16329C42.5118 8.1869 42.4733 8.19992 42.4335 8.19978Z" fill="#263238"/>
<path d="M42.3269 8.78969H40.7833C40.7631 8.79145 40.7427 8.78947 40.7234 8.78385C40.7042 8.77824 40.6864 8.76913 40.6714 8.75711C40.6564 8.74508 40.6444 8.73042 40.6363 8.71407C40.6281 8.69771 40.6239 8.68003 40.624 8.66217C40.628 8.62748 40.6465 8.59534 40.676 8.57202C40.7054 8.5487 40.7437 8.53588 40.7833 8.53605H42.3269C42.347 8.53384 42.3675 8.53547 42.3869 8.54083C42.4063 8.54619 42.4241 8.55515 42.4393 8.56711C42.4544 8.57907 42.4664 8.59375 42.4745 8.61015C42.4826 8.62655 42.4865 8.64429 42.4862 8.66217C42.4826 8.69711 42.4642 8.72959 42.4347 8.7532C42.4052 8.77681 42.3667 8.78983 42.3269 8.78969V8.78969Z" fill="#263238"/>
<path d="M42.2151 9.38527H38.1818C38.1615 9.38726 38.141 9.38543 38.1216 9.37991C38.1022 9.37438 38.0844 9.36528 38.0693 9.35321C38.0543 9.34114 38.0423 9.32639 38.0342 9.30993C38.0261 9.29346 38.0221 9.27568 38.0225 9.25775C38.0265 9.22182 38.0462 9.18865 38.0773 9.16516C38.1085 9.14166 38.1488 9.12965 38.1897 9.13164H42.231C42.2512 9.12942 42.2716 9.13105 42.291 9.13641C42.3104 9.14177 42.3283 9.15073 42.3434 9.16269C42.3585 9.17465 42.3705 9.18933 42.3786 9.20573C42.3867 9.22213 42.3907 9.23987 42.3903 9.25775C42.3885 9.27631 42.3825 9.29437 42.3727 9.31087C42.3629 9.32738 42.3494 9.34199 42.3331 9.35386C42.3168 9.36574 42.2979 9.37463 42.2777 9.38002C42.2574 9.38541 42.2361 9.3872 42.2151 9.38527V9.38527Z" fill="#263238"/>
<path d="M17.0595 40.1335H8.90694C8.88865 40.1354 8.87014 40.133 8.85319 40.1267C8.83624 40.1204 8.82144 40.1103 8.81022 40.0975C8.799 40.0847 8.79174 40.0695 8.78915 40.0535C8.78656 40.0374 8.78872 40.0211 8.79544 40.006C8.8121 39.9697 8.84039 39.9385 8.87688 39.9161C8.91336 39.8937 8.95646 39.8811 9.00092 39.8799H17.1535C17.1717 39.8778 17.1903 39.8799 17.2073 39.886C17.2243 39.8921 17.2392 39.902 17.2504 39.9148C17.2617 39.9276 17.269 39.9427 17.2716 39.9587C17.2741 39.9747 17.2719 39.991 17.265 40.006C17.2488 40.0427 17.2206 40.0743 17.1841 40.097C17.1476 40.1197 17.1042 40.1324 17.0595 40.1335Z" fill="#263238"/>
<path d="M31.6988 40.1336H22.3005C22.2822 40.1354 22.2637 40.133 22.2467 40.1267C22.2298 40.1204 22.215 40.1104 22.2038 40.0975C22.1926 40.0847 22.1853 40.0695 22.1827 40.0535C22.1801 40.0375 22.1823 40.0211 22.189 40.006C22.2056 39.9698 22.2339 39.9385 22.2704 39.9161C22.3069 39.8937 22.35 39.8812 22.3945 39.8799H31.8007C31.8189 39.8779 31.8374 39.8801 31.8544 39.8862C31.8714 39.8924 31.8863 39.9023 31.8977 39.9149C31.909 39.9276 31.9165 39.9427 31.9193 39.9586C31.9222 39.9746 31.9203 39.9909 31.9138 40.006C31.8964 40.0437 31.8667 40.0759 31.8284 40.0986C31.7901 40.1213 31.745 40.1335 31.6988 40.1336Z" fill="#263238"/>
<path d="M18.5247 32.795H14.2015C14.1831 32.7968 14.1645 32.7946 14.1473 32.7885C14.1301 32.7825 14.1148 32.7728 14.1029 32.7603C14.0909 32.7479 14.0826 32.733 14.0787 32.7171C14.0748 32.7011 14.0754 32.6846 14.0805 32.6689C14.0941 32.6322 14.1205 32.6001 14.156 32.5772C14.1914 32.5544 14.2341 32.5418 14.278 32.5414H18.5996C18.6182 32.5395 18.637 32.5418 18.6544 32.5479C18.6718 32.554 18.6872 32.5638 18.6992 32.5765C18.7112 32.5891 18.7194 32.6042 18.7232 32.6203C18.7269 32.6365 18.7261 32.6532 18.7207 32.6689C18.7071 32.7053 18.6808 32.737 18.6457 32.7596C18.6106 32.7822 18.5683 32.7946 18.5247 32.795Z" fill="#263238"/>
<path d="M33.5238 32.795H27.2269C27.2085 32.7968 27.1899 32.7946 27.1727 32.7885C27.1555 32.7825 27.1402 32.7728 27.1282 32.7603C27.1163 32.7479 27.108 32.733 27.1041 32.7171C27.1002 32.7011 27.1008 32.6846 27.1059 32.6689C27.1195 32.6322 27.1459 32.6001 27.1813 32.5772C27.2168 32.5544 27.2595 32.5418 27.3034 32.5414H33.5986C33.6172 32.5395 33.6361 32.5418 33.6535 32.5479C33.6708 32.554 33.6862 32.5638 33.6982 32.5765C33.7102 32.5891 33.7185 32.6042 33.7222 32.6203C33.726 32.6365 33.7251 32.6532 33.7197 32.6689C33.7063 32.7054 33.6801 32.7372 33.645 32.7599C33.6098 32.7825 33.5674 32.7948 33.5238 32.795Z" fill="#263238"/>
<path d="M26.6542 38.6482C26.5209 38.6536 26.3883 38.629 26.2688 38.5768C26.0665 38.4731 26.0171 38.2965 26.127 38.0695C26.1431 38.036 26.1612 38.0033 26.1812 37.9714C25.5688 38.186 24.9254 38.3247 24.2696 38.3834C23.8778 38.4044 23.7822 38.2699 23.7726 38.1522C23.7535 37.9434 23.9861 37.6113 24.3572 37.2259C23.4971 37.565 22.8663 37.771 22.8535 37.7752C22.8073 37.7907 22.7659 37.7752 22.7579 37.7444C22.7568 37.7256 22.763 37.7071 22.7754 37.6918C22.7879 37.6765 22.8059 37.6654 22.8264 37.6603C22.8408 37.6603 23.591 37.4095 24.5691 37.0143C25.5631 36.0629 27.2166 34.8914 28.0735 34.492C28.69 34.2118 29.0484 34.1263 29.1408 34.2594C29.2842 34.4696 28.5801 35.1002 27.4189 35.784C26.54 36.2878 25.6175 36.7301 24.6599 37.1068C24.2123 37.5398 23.9176 37.9112 23.9351 38.113C23.9351 38.155 23.9511 38.2797 24.3015 38.2531C24.9916 38.1885 25.6675 38.037 26.3086 37.8033C26.8056 37.2119 27.9605 36.5141 28.4893 36.402C28.6932 36.3571 28.7744 36.402 28.8079 36.4496C28.8413 36.4973 28.8509 36.5729 28.7394 36.6991C28.4574 37.02 27.4794 37.5258 26.4026 37.9C26.3568 37.9583 26.3174 38.0202 26.2847 38.0849C26.2003 38.2615 26.2337 38.3862 26.3898 38.4661C26.7466 38.6468 27.6642 38.389 28.5753 38.0191C28.5838 37.9755 28.5987 37.9331 28.6199 37.8929C28.8748 37.3829 30.1205 36.5926 30.7831 36.6318C30.9153 36.6318 30.9424 36.6892 30.9424 36.7313C30.9567 36.9163 30.396 37.2596 29.9229 37.516C29.5384 37.7204 29.1423 37.9075 28.7362 38.0765C28.7585 38.1452 28.8366 38.1886 28.9704 38.2082C29.9564 38.3484 32.2614 37.0802 32.2821 37.0676C32.297 37.0555 32.3167 37.0488 32.337 37.0488C32.3574 37.0488 32.377 37.0555 32.392 37.0676C32.3997 37.084 32.4001 37.1024 32.393 37.1191C32.3859 37.1357 32.3719 37.1494 32.3537 37.1573C32.2582 37.2105 29.9548 38.4801 28.9003 38.3259C28.8319 38.324 28.7655 38.3049 28.7091 38.2709C28.6526 38.2369 28.6084 38.1894 28.5817 38.134C27.876 38.424 27.1449 38.6482 26.6542 38.6482ZM30.6923 36.7509C30.1093 36.7509 28.9847 37.4726 28.7681 37.907C28.7681 37.9196 28.7553 37.9308 28.7505 37.9434C29.1472 37.7738 29.5311 37.5889 29.856 37.4123C30.5378 37.0438 30.7847 36.8196 30.7799 36.7663C30.7799 36.7663 30.7656 36.7551 30.7258 36.7523L30.6923 36.7509ZM28.5897 36.5085C28.5562 36.5094 28.523 36.5141 28.4909 36.5225C28.0353 36.622 27.07 37.1993 26.5619 37.715C27.5176 37.3647 28.3619 36.9261 28.6056 36.6472C28.6534 36.5926 28.6693 36.5533 28.6518 36.5281C28.6441 36.5206 28.6343 36.5149 28.6235 36.5115C28.6127 36.508 28.601 36.507 28.5897 36.5085V36.5085ZM28.929 34.3281C28.8318 34.3281 28.6024 34.3799 28.1325 34.6013C27.3105 34.9853 25.8721 36.0124 24.9068 36.884C25.7502 36.5402 26.5642 36.1431 27.3424 35.6957C28.5658 34.9699 29.0564 34.4346 28.9927 34.3435C28.9831 34.3281 28.964 34.3281 28.929 34.3281Z" fill="#263238"/>
<path d="M24.9642 11.7394C25.0097 11.5775 25.1175 11.4344 25.2694 11.3345C25.4213 11.2346 25.6079 11.1841 25.7973 11.1915C25.8892 11.1857 25.9813 11.1988 26.0665 11.2297C26.1516 11.2605 26.2274 11.3084 26.2879 11.3695L26.1032 11.49C26.0625 11.4483 26.0115 11.4153 25.954 11.3937C25.8966 11.3721 25.8342 11.3624 25.7718 11.3653C25.6439 11.3608 25.5182 11.3957 25.4164 11.464C25.3146 11.5323 25.2431 11.6297 25.2143 11.7394C25.1681 11.958 25.3338 12.1136 25.6109 12.1136C25.7525 12.1139 25.8895 12.0691 25.9964 11.9875L26.1302 12.1094C25.9713 12.2281 25.7684 12.2914 25.56 12.2873C25.1506 12.2873 24.8957 12.0575 24.9642 11.7394Z" fill="black"/>
<path d="M26.3255 11.7394C26.3713 11.5774 26.4795 11.4342 26.6317 11.3343C26.7838 11.2345 26.9706 11.184 27.1602 11.1915C27.576 11.1915 27.8324 11.4227 27.7655 11.7394C27.7188 11.9018 27.6097 12.0451 27.4567 12.1449C27.3038 12.2447 27.1163 12.295 26.9261 12.2873C26.5119 12.2873 26.257 12.0547 26.3255 11.7394ZM27.5155 11.7394C27.5277 11.6908 27.5265 11.6402 27.5118 11.5921C27.4972 11.5439 27.4695 11.4996 27.4312 11.4629C27.3929 11.4261 27.3451 11.3981 27.2918 11.3811C27.2385 11.3641 27.1814 11.3587 27.1252 11.3653C26.9985 11.3619 26.8743 11.3973 26.7741 11.4656C26.6738 11.5339 26.6037 11.6307 26.5756 11.7394C26.5278 11.9566 26.6951 12.1136 26.9643 12.1136C27.0912 12.1168 27.2153 12.0813 27.3158 12.0131C27.4163 11.9449 27.4868 11.8482 27.5155 11.7394V11.7394Z" fill="black"/>
<path d="M29.332 11.2069C29.2572 11.5614 29.1807 11.9174 29.1026 12.2719H28.8987L28.3173 11.5502C28.2664 11.7912 28.2133 12.0318 28.158 12.2719H27.9111C27.9892 11.9174 28.0704 11.5614 28.1405 11.2069H28.3444C28.5409 11.4461 28.7357 11.6866 28.929 11.9286L29.0883 11.2069H29.332Z" fill="black"/>
<path d="M29.9272 11.3737H29.4844C29.4955 11.3176 29.5067 11.263 29.5194 11.2069H30.6536C30.6424 11.263 30.6297 11.3176 30.6185 11.3737H30.1757C30.112 11.6735 30.0483 11.9734 29.9814 12.2719H29.7345C29.8003 11.9739 29.8646 11.6745 29.9272 11.3737Z" fill="black"/>
<path d="M31.4889 12.2719L31.2834 11.9594C31.2664 11.9607 31.2494 11.9607 31.2324 11.9594H30.9377L30.8708 12.2691H30.6191C30.6972 11.9146 30.7784 11.5586 30.8469 11.2041H31.3965C31.7485 11.2041 31.9365 11.3442 31.8871 11.5824C31.8687 11.662 31.8256 11.7355 31.7626 11.7949C31.6997 11.8542 31.6193 11.8971 31.5303 11.9188C31.6068 12.0365 31.6896 12.1528 31.7613 12.2691L31.4889 12.2719ZM31.3455 11.3737H31.0556L30.9648 11.794H31.2563C31.4745 11.794 31.6052 11.7156 31.6338 11.581C31.6625 11.4465 31.5637 11.3737 31.3455 11.3737Z" fill="black"/>
<path d="M32.9316 12.0253H32.2625C32.202 12.1079 32.1399 12.1906 32.0778 12.2719H31.8213C32.1006 11.9178 32.3772 11.5628 32.6512 11.2069H32.8965C33.0224 11.5614 33.1482 11.9174 33.2709 12.2719H33.008C32.9857 12.1878 32.9586 12.1079 32.9316 12.0253ZM32.8838 11.8697L32.7245 11.4045C32.6082 11.56 32.4919 11.7156 32.374 11.8697H32.8838Z" fill="black"/>
<path d="M33.4433 11.7394C33.4888 11.5775 33.5966 11.4344 33.7485 11.3345C33.9004 11.2346 34.0869 11.1841 34.2764 11.1915C34.3685 11.1857 34.4609 11.1988 34.5463 11.2296C34.6317 11.2605 34.7078 11.3084 34.7686 11.3695L34.5822 11.49C34.5416 11.4483 34.4905 11.4153 34.4331 11.3937C34.3756 11.3721 34.3133 11.3624 34.2509 11.3653C34.123 11.3608 33.9973 11.3957 33.8955 11.464C33.7937 11.5323 33.7222 11.6297 33.6934 11.7394C33.6472 11.958 33.8129 12.1136 34.09 12.1136C34.2316 12.1139 34.3685 12.0691 34.4755 11.9875L34.6093 12.1094C34.4504 12.2281 34.2475 12.2914 34.0391 12.2873C33.6297 12.2873 33.3764 12.0575 33.4433 11.7394Z" fill="black"/>
<path d="M35.2622 11.3737H34.8193C34.8305 11.3176 34.8416 11.263 34.8544 11.2069H35.9885C35.9774 11.263 35.9662 11.3176 35.9535 11.3737H35.5107C35.4469 11.6735 35.3827 11.9729 35.3179 12.2719H35.0694C35.1347 11.9734 35.2 11.6735 35.2622 11.3737Z" fill="black"/>
<path d="M23.9905 13.7713H18.5745C18.5551 13.7725 18.5355 13.7701 18.5172 13.7641C18.4989 13.7581 18.4823 13.7488 18.4684 13.7367C18.4545 13.7247 18.4437 13.7101 18.4368 13.6941C18.4298 13.6781 18.4268 13.6609 18.428 13.6438C18.4349 13.6079 18.4562 13.5754 18.4881 13.5522C18.52 13.5291 18.5603 13.5168 18.6016 13.5176H24.0176C24.037 13.5162 24.0565 13.5184 24.0748 13.5242C24.0931 13.53 24.1098 13.5392 24.1237 13.5512C24.1376 13.5631 24.1484 13.5776 24.1554 13.5936C24.1623 13.6096 24.1653 13.6267 24.1641 13.6438C24.1579 13.68 24.1368 13.713 24.1048 13.7365C24.0728 13.76 24.0321 13.7724 23.9905 13.7713Z" fill="#263238"/>
<path d="M21.1228 14.4579H18.4149C18.3955 14.4591 18.376 14.4567 18.3577 14.4507C18.3395 14.4448 18.3229 14.4354 18.3092 14.4233C18.2954 14.4112 18.2848 14.3966 18.278 14.3806C18.2712 14.3646 18.2685 14.3474 18.2699 14.3303C18.2771 14.2944 18.2988 14.2619 18.3309 14.2387C18.3631 14.2156 18.4036 14.2033 18.4451 14.2042H21.1531C21.1723 14.203 21.1917 14.2054 21.2098 14.2113C21.2279 14.2172 21.2444 14.2264 21.2581 14.2383C21.2718 14.2503 21.2825 14.2647 21.2894 14.2805C21.2963 14.2964 21.2992 14.3134 21.298 14.3303C21.2912 14.3666 21.2697 14.3994 21.2375 14.4229C21.2053 14.4463 21.1646 14.4587 21.1228 14.4579Z" fill="#263238"/>
<path d="M40.041 18.0479H17.4867C17.4676 18.0495 17.4483 18.0473 17.4303 18.0415C17.4122 18.0357 17.3959 18.0264 17.3825 18.0143C17.369 18.0022 17.3588 17.9876 17.3526 17.9716C17.3464 17.9556 17.3443 17.9386 17.3466 17.9218C17.3547 17.8856 17.377 17.853 17.4096 17.8298C17.4422 17.8065 17.483 17.7939 17.525 17.7943H40.0792C40.0984 17.793 40.1178 17.7954 40.1358 17.8014C40.1538 17.8074 40.1701 17.8168 40.1835 17.829C40.1969 17.8412 40.2071 17.8558 40.2133 17.8719C40.2195 17.8879 40.2216 17.905 40.2194 17.9218C40.2112 17.9579 40.1888 17.9903 40.1562 18.0134C40.1236 18.0364 40.0828 18.0487 40.041 18.0479Z" fill="#263238"/>
<path d="M39.8215 18.8327H17.2672C17.2479 18.8343 17.2285 18.832 17.2103 18.8261C17.1921 18.8202 17.1757 18.8108 17.1623 18.7986C17.1488 18.7863 17.1386 18.7716 17.1325 18.7554C17.1264 18.7392 17.1246 18.722 17.127 18.7051C17.1356 18.6689 17.1583 18.6365 17.1911 18.6135C17.224 18.5904 17.265 18.5783 17.307 18.579H39.8581C39.8772 18.5777 39.8963 18.5801 39.9142 18.586C39.9321 18.5919 39.9483 18.6012 39.9617 18.6132C39.9751 18.6253 39.9853 18.6397 39.9916 18.6556C39.9979 18.6715 40.0002 18.6884 39.9983 18.7051C39.9899 18.741 39.9677 18.7732 39.9355 18.7965C39.9034 18.8197 39.8631 18.8324 39.8215 18.8327Z" fill="#263238"/>
<path d="M39.5945 19.6146H17.0387C17.0196 19.616 17.0003 19.6137 16.9824 19.6077C16.9645 19.6017 16.9484 19.5922 16.9352 19.5799C16.922 19.5677 16.9122 19.5529 16.9064 19.5369C16.9006 19.5208 16.899 19.5038 16.9017 19.4871C16.9104 19.4509 16.9331 19.4184 16.9659 19.3952C16.9987 19.372 17.0396 19.3594 17.0817 19.3596H39.6359C39.655 19.3584 39.6741 19.361 39.692 19.3671C39.7098 19.3732 39.7259 19.3827 39.7391 19.3948C39.7523 19.407 39.7624 19.4215 39.7685 19.4375C39.7746 19.4534 39.7766 19.4704 39.7745 19.4871C39.766 19.5234 39.7434 19.556 39.7105 19.5793C39.6777 19.6026 39.6367 19.615 39.5945 19.6146V19.6146Z" fill="#263238"/>
<path d="M39.3621 20.4021H16.8062C16.7871 20.4036 16.7679 20.4012 16.75 20.3952C16.7321 20.3892 16.716 20.3797 16.7028 20.3674C16.6896 20.3552 16.6798 20.3405 16.674 20.3244C16.6682 20.3083 16.6665 20.2913 16.6692 20.2746C16.6787 20.2385 16.7018 20.2064 16.7348 20.1835C16.7678 20.1605 16.8088 20.1482 16.8508 20.1485H39.4051C39.4241 20.1468 39.4433 20.149 39.4612 20.1548C39.4792 20.1607 39.4953 20.17 39.5085 20.1822C39.5217 20.1943 39.5316 20.209 39.5374 20.225C39.5432 20.241 39.5448 20.258 39.5421 20.2746C39.5336 20.3109 39.511 20.3435 39.4781 20.3668C39.4453 20.3901 39.4042 20.4026 39.3621 20.4021V20.4021Z" fill="#263238"/>
<path d="M39.1234 21.1868H16.5676C16.5486 21.1883 16.5294 21.186 16.5115 21.18C16.4937 21.1739 16.4776 21.1644 16.4645 21.1521C16.4515 21.1398 16.4418 21.1251 16.4362 21.109C16.4306 21.0929 16.4292 21.0759 16.4322 21.0593C16.4416 21.0233 16.4648 20.9911 16.4978 20.9682C16.5308 20.9452 16.5717 20.9329 16.6138 20.9332H39.1696C39.1885 20.9318 39.2075 20.9341 39.2253 20.94C39.243 20.946 39.259 20.9554 39.272 20.9675C39.285 20.9796 39.2947 20.9942 39.3005 21.0101C39.3062 21.026 39.3077 21.0428 39.305 21.0593C39.2962 21.0958 39.2733 21.1284 39.2402 21.1517C39.2071 21.1749 39.1658 21.1873 39.1234 21.1868Z" fill="#263238"/>
<path d="M38.8777 21.973H16.3235C16.3044 21.9745 16.2852 21.9721 16.2674 21.9661C16.2495 21.9601 16.2335 21.9506 16.2204 21.9383C16.2073 21.926 16.1977 21.9113 16.192 21.8952C16.1864 21.8791 16.1851 21.8621 16.1881 21.8455C16.1972 21.8089 16.2205 21.7763 16.2538 21.753C16.2872 21.7298 16.3287 21.7174 16.3712 21.718H38.9255C38.9445 21.7165 38.9637 21.7188 38.9816 21.7248C38.9994 21.7309 39.0155 21.7404 39.0286 21.7527C39.0416 21.765 39.0513 21.7797 39.0569 21.7958C39.0625 21.8119 39.0639 21.8289 39.0609 21.8455C39.0512 21.8818 39.0278 21.9142 38.9946 21.9373C38.9613 21.9605 38.9201 21.973 38.8777 21.973V21.973Z" fill="#263238"/>
<path d="M38.6264 22.7576H16.0722C16.0532 22.7592 16.034 22.7568 16.0162 22.7508C15.9984 22.7448 15.9824 22.7353 15.9695 22.7229C15.9565 22.7106 15.947 22.6958 15.9416 22.6797C15.9362 22.6636 15.9351 22.6466 15.9384 22.6301C15.9481 22.5938 15.9714 22.5614 16.0047 22.5383C16.0379 22.5151 16.0791 22.5026 16.1215 22.5026H38.6774C38.6964 22.5011 38.7155 22.5034 38.7333 22.5094C38.7511 22.5154 38.7671 22.525 38.7801 22.5373C38.793 22.5496 38.8025 22.5644 38.8079 22.5805C38.8133 22.5966 38.8144 22.6136 38.8112 22.6301C38.8009 22.6664 38.7771 22.6987 38.7437 22.7218C38.7102 22.7449 38.6689 22.7575 38.6264 22.7576V22.7576Z" fill="#263238"/>
<path d="M38.3695 23.5382H15.8137C15.7948 23.5395 15.7759 23.537 15.7583 23.5309C15.7407 23.5248 15.7249 23.5152 15.7121 23.5029C15.6994 23.4906 15.69 23.4759 15.6847 23.4599C15.6794 23.4439 15.6783 23.4271 15.6815 23.4107C15.6918 23.3744 15.7155 23.3421 15.749 23.319C15.7825 23.2959 15.8237 23.2833 15.8663 23.2832H38.4237C38.4427 23.2816 38.4618 23.284 38.4796 23.29C38.4975 23.296 38.5135 23.3055 38.5264 23.3179C38.5393 23.3302 38.5489 23.345 38.5543 23.3611C38.5597 23.3772 38.5608 23.3942 38.5575 23.4107C38.5471 23.4475 38.5229 23.4801 38.4888 23.5032C38.4546 23.5264 38.4126 23.5387 38.3695 23.5382V23.5382Z" fill="#263238"/>
<path d="M26.9548 24.3271H15.5494C15.5305 24.3287 15.5113 24.3264 15.4936 24.3204C15.4758 24.3143 15.4599 24.3048 15.4471 24.2924C15.4342 24.28 15.4249 24.2652 15.4197 24.2491C15.4145 24.233 15.4136 24.216 15.4172 24.1996C15.428 24.1633 15.4522 24.1311 15.4858 24.1081C15.5195 24.085 15.5609 24.0724 15.6036 24.0721H27.0073C27.0263 24.0705 27.0455 24.0728 27.0633 24.0789C27.0811 24.0849 27.0971 24.0944 27.11 24.1068C27.1229 24.1191 27.1325 24.1339 27.1379 24.15C27.1433 24.1661 27.1444 24.183 27.1411 24.1996C27.1305 24.236 27.1065 24.2683 27.0727 24.2914C27.039 24.3145 26.9975 24.327 26.9548 24.3271Z" fill="#263238"/>
<path d="M41.3027 13.7713H37.4144C37.3949 13.7725 37.3754 13.7701 37.3571 13.7641C37.3388 13.7582 37.3221 13.7488 37.3082 13.7368C37.2944 13.7247 37.2836 13.7101 37.2766 13.6941C37.2696 13.6781 37.2666 13.6609 37.2678 13.6438C37.2747 13.6079 37.296 13.5754 37.3279 13.5522C37.3598 13.5291 37.4001 13.5168 37.4415 13.5176H41.3314C41.3506 13.5164 41.37 13.5188 41.3881 13.5247C41.4062 13.5306 41.4227 13.5398 41.4364 13.5518C41.4501 13.5637 41.4608 13.5781 41.4677 13.594C41.4746 13.6098 41.4775 13.6268 41.4763 13.6438C41.4701 13.68 41.449 13.713 41.417 13.7365C41.385 13.76 41.3444 13.7724 41.3027 13.7713V13.7713Z" fill="#263238"/>
<path d="M37.7507 25.392H17.597C17.5781 25.3937 17.559 25.3914 17.5413 25.3854C17.5236 25.3794 17.5077 25.3698 17.495 25.3574C17.4823 25.3449 17.4731 25.3301 17.4681 25.3139C17.4631 25.2978 17.4625 25.2809 17.4664 25.2645C17.477 25.2281 17.501 25.1958 17.5348 25.1727C17.5685 25.1496 17.61 25.1371 17.6527 25.137H37.8065C37.8254 25.1353 37.8444 25.1376 37.8622 25.1436C37.8799 25.1497 37.8957 25.1593 37.9085 25.1717C37.9212 25.1841 37.9304 25.199 37.9354 25.2151C37.9403 25.2312 37.9409 25.2482 37.9371 25.2645C37.9265 25.3009 37.9024 25.3332 37.8687 25.3563C37.8349 25.3794 37.7934 25.392 37.7507 25.392V25.392Z" fill="#263238"/>
<path d="M37.4682 26.1768H14.9075C14.8886 26.1785 14.8696 26.1762 14.8518 26.1702C14.8341 26.1642 14.8183 26.1545 14.8055 26.1421C14.7928 26.1297 14.7836 26.1148 14.7786 26.0987C14.7737 26.0826 14.7731 26.0657 14.7769 26.0493C14.7881 26.0129 14.8125 25.9807 14.8465 25.9576C14.8804 25.9346 14.922 25.922 14.9649 25.9218H37.5207C37.5396 25.92 37.5586 25.9223 37.5763 25.9283C37.594 25.9343 37.6098 25.944 37.6224 25.9564C37.635 25.9689 37.6441 25.9838 37.6488 26C37.6536 26.0161 37.6539 26.033 37.6498 26.0493C37.6389 26.0848 37.6154 26.1163 37.5828 26.1393C37.5501 26.1622 37.5099 26.1754 37.4682 26.1768V26.1768Z" fill="#263238"/>
<path d="M37.178 26.9615H14.6222C14.6033 26.9632 14.5842 26.961 14.5666 26.955C14.5489 26.949 14.5331 26.9393 14.5205 26.9269C14.5079 26.9144 14.4988 26.8995 14.494 26.8833C14.4893 26.8672 14.489 26.8503 14.4931 26.834C14.5049 26.7977 14.5297 26.7658 14.5639 26.743C14.5981 26.7203 14.6398 26.708 14.6827 26.7079H37.2385C37.2572 26.7062 37.2761 26.7084 37.2936 26.7144C37.3112 26.7203 37.3269 26.7298 37.3394 26.7421C37.352 26.7544 37.3611 26.7691 37.366 26.7851C37.3709 26.8011 37.3714 26.8178 37.3676 26.834C37.3561 26.8705 37.3314 26.9028 37.2971 26.9258C37.2629 26.9488 37.2211 26.9613 37.178 26.9615V26.9615Z" fill="#263238"/>
<path d="M36.8883 27.742H14.3324C14.3137 27.7435 14.2948 27.7411 14.2774 27.735C14.2599 27.7289 14.2443 27.7192 14.2319 27.7068C14.2195 27.6943 14.2106 27.6795 14.2059 27.6635C14.2012 27.6475 14.2009 27.6307 14.205 27.6145C14.2168 27.5779 14.2418 27.5456 14.2763 27.5226C14.3108 27.4996 14.3529 27.4871 14.3962 27.487H36.9504C36.9692 27.4852 36.9883 27.4874 37.0059 27.4934C37.0236 27.4994 37.0393 27.5091 37.0518 27.5216C37.0643 27.5341 37.0732 27.5491 37.0777 27.5653C37.0823 27.5814 37.0823 27.5983 37.0778 27.6145C37.0659 27.6508 37.0411 27.6828 37.0069 27.7058C36.9728 27.7287 36.9312 27.7414 36.8883 27.742V27.742Z" fill="#263238"/>
<path d="M36.5918 28.5324H14.0375C14.0188 28.5339 13.9999 28.5315 13.9824 28.5253C13.965 28.5192 13.9494 28.5095 13.937 28.4971C13.9246 28.4847 13.9156 28.4698 13.911 28.4538C13.9063 28.4378 13.906 28.421 13.9101 28.4049C13.9219 28.3682 13.9469 28.336 13.9814 28.3129C14.0159 28.2899 14.0579 28.2774 14.1012 28.2773H36.6571C36.6759 28.2754 36.6949 28.2776 36.7125 28.2836C36.7301 28.2896 36.7458 28.2993 36.7582 28.3119C36.7706 28.3245 36.7794 28.3395 36.7837 28.3557C36.788 28.3719 36.7877 28.3888 36.7829 28.4049C36.7709 28.4414 36.7458 28.4735 36.7114 28.4965C36.6769 28.5195 36.635 28.5321 36.5918 28.5324Z" fill="#263238"/>
<path d="M21.9531 29.317H13.7336C13.7149 29.3186 13.6961 29.3162 13.6786 29.3101C13.6612 29.304 13.6457 29.2943 13.6334 29.2818C13.621 29.2693 13.6123 29.2544 13.6078 29.2384C13.6034 29.2223 13.6034 29.2056 13.6078 29.1895C13.6201 29.1529 13.6455 29.1207 13.6802 29.0977C13.7149 29.0748 13.7571 29.0623 13.8005 29.062H22.0168C22.0356 29.0601 22.0546 29.0623 22.0723 29.0683C22.0899 29.0743 22.1056 29.084 22.118 29.0966C22.1304 29.1091 22.1391 29.1242 22.1434 29.1404C22.1477 29.1566 22.1475 29.1734 22.1427 29.1895C22.1305 29.2257 22.1056 29.2576 22.0715 29.2805C22.0375 29.3034 21.996 29.3162 21.9531 29.317V29.317Z" fill="#263238"/>
<g opacity="0.2">
<path d="M21.098 35.6074C21.1793 35.5443 21.3831 35.4056 21.5042 35.3271C21.5584 35.2907 21.6269 35.2865 21.6635 35.3187C21.732 35.3916 21.8005 35.4589 21.8674 35.5387C21.8674 35.5387 21.6412 35.7615 21.5679 35.8372C20.8352 36.6009 20.3971 37.3352 20.4529 37.4753C21.2016 37.4081 26.0934 35.3019 28.2837 34.0646C27.7979 33.1706 26.6414 32.6129 25.066 32.6759C22.8232 32.7656 20.4146 34.1431 19.3808 35.8919C19.0452 36.4269 18.8698 37.0282 18.8711 37.6393C19.549 36.9096 20.2938 36.23 21.098 35.6074Z" fill="black"/>
<path d="M19.6436 39.2045C20.1804 39.6431 20.9784 39.9052 21.982 39.9052C24.4876 39.9052 27.3294 38.2895 28.2454 36.2913C28.4799 35.8102 28.5709 35.2845 28.5098 34.7639C26.2654 36.1707 21.9071 38.4758 19.6436 39.2045Z" fill="black"/>
<path d="M21.3021 35.7461C21.31 35.7461 18.0079 38.3077 18.4475 39.0882C18.9143 39.8701 27.223 35.4841 29.2794 33.9749C31.3646 32.4699 29.2794 33.0711 29.2794 33.0725C29.2794 33.0739 29.9867 33.1033 29.4626 33.5685C28.4129 34.5186 20.8497 37.9027 20.2428 37.7219C19.6359 37.5412 21.3068 35.7475 21.3021 35.7461Z" fill="black"/>
</g>
<path d="M11.1959 38.9102C10.0251 38.9102 9.79098 38.5109 9.80213 38.1662C9.84195 37.146 12.1039 35.4014 14.4614 34.5761C15.7565 34.1235 16.7887 34.094 17.093 34.5032C17.3415 34.8409 17.0356 35.3986 16.2455 36.0348C14.6845 37.296 13.3942 37.5762 12.8239 37.3044C12.7439 37.2678 12.6759 37.2137 12.6264 37.1474C12.483 37.2063 12.3253 37.2679 12.1485 37.331C12.1402 37.3355 12.1309 37.3385 12.1212 37.3396C12.1115 37.3407 12.1016 37.34 12.0922 37.3374C12.0829 37.3349 12.0742 37.3307 12.0669 37.325C12.0596 37.3193 12.0537 37.3122 12.0497 37.3044C12.0476 37.2859 12.0528 37.2673 12.0644 37.2517C12.076 37.2362 12.0933 37.2246 12.1135 37.2189C12.2807 37.1558 12.432 37.097 12.5674 37.0409C12.5527 36.9705 12.5548 36.8982 12.5734 36.8285C12.5921 36.7588 12.6269 36.6932 12.6758 36.636C12.7756 36.5064 12.9093 36.3997 13.0656 36.3249C13.2219 36.2501 13.3963 36.2092 13.5742 36.2058C13.7239 36.2128 13.8115 36.2716 13.8067 36.3641C13.7972 36.5463 13.4404 36.7943 12.7889 37.0788C12.8269 37.1258 12.8772 37.1642 12.9354 37.1909C13.3225 37.3758 14.4439 37.331 16.142 35.9605C16.8684 35.3748 17.1583 34.8731 16.9384 34.5859C16.674 34.2286 15.6896 34.2706 14.4901 34.6896C12.1979 35.4911 9.99965 37.167 9.96142 38.1353C9.94549 38.5851 10.4393 38.8093 11.3855 38.7813C12.5993 38.7477 13.8816 38.3119 14.96 37.8004C15.3009 37.2259 16.2933 36.4804 17.3494 36.0334C17.5597 35.9437 17.6807 35.9241 17.7365 35.9689C17.7923 36.0138 17.7715 36.0628 17.711 36.1441C17.4912 36.4412 16.4478 37.2091 15.0922 37.8593C15.0747 37.8929 15.0588 37.9265 15.046 37.9574C15.007 38.0234 14.9936 38.099 15.008 38.1724C15.0224 38.2458 15.0637 38.313 15.1257 38.3637C15.5749 38.6916 17.2076 37.7149 17.7923 37.31C17.8082 37.2978 17.8285 37.2912 17.8496 37.2912C17.8707 37.2912 17.891 37.2978 17.9069 37.31C17.9324 37.3324 17.9213 37.373 17.883 37.3997C17.7954 37.4627 15.6291 38.9411 14.9951 38.4716C14.8358 38.3567 14.8023 38.1802 14.8883 37.9616C13.794 38.4674 12.5244 38.8808 11.3505 38.913L11.1959 38.9102ZM17.5947 36.074C17.5268 36.09 17.4611 36.1125 17.3988 36.1413C16.4892 36.5281 15.602 37.1656 15.2117 37.6827C15.8894 37.3471 16.5294 36.9558 17.1232 36.514C17.3065 36.3909 17.4658 36.2423 17.5947 36.074ZM13.5041 36.3319C13.3684 36.3401 13.2365 36.3753 13.1185 36.4348C13.0004 36.4942 12.8991 36.5764 12.8223 36.6752C12.75 36.7603 12.7191 36.8671 12.7363 36.9723C13.4276 36.671 13.6379 36.472 13.6411 36.3921C13.6411 36.3431 13.5598 36.3347 13.5232 36.3333L13.5041 36.3319Z" fill="#5F4DFF"/>
</svg>
