<svg width="26" height="26" viewBox="0 0 26 26" fill="none" xmlns="http://www.w3.org/2000/svg">
<path d="M13 26C20.1797 26 26 20.1797 26 13C26 5.8203 20.1797 0 13 0C5.8203 0 0 5.8203 0 13C0 20.1797 5.8203 26 13 26Z" fill="#E84142"/>
<path d="M17.5858 13.3378C18.0362 12.5598 18.763 12.5598 19.2134 13.3378L22.0181 18.2614C22.4685 19.0394 22.1 19.674 21.1992 19.674H15.5488C14.6583 19.674 14.2898 19.0394 14.7299 18.2614L17.5858 13.3378ZM12.1606 3.85904C12.611 3.08109 13.3276 3.08109 13.778 3.85904L14.4024 4.98502L15.8764 7.57479C16.2347 8.31179 16.2347 9.18187 15.8764 9.91888L10.9323 18.4866C10.4819 19.1827 9.73465 19.6228 8.90552 19.674H4.8008C3.90001 19.674 3.5315 19.0496 3.9819 18.2614L12.1606 3.85904Z" fill="white"/>
</svg>
